<?xml version="1.0" standalone="no"?>
<!DOCTYPE svg PUBLIC "-//W3C//DTD SVG 1.1//EN" "http://www.w3.org/Graphics/SVG/1.1/DTD/svg11.dtd" >
<svg>
<metadata>
Created by FontForge 20090914 at Thu Feb  3 09:40:25 2022
 By www-data
Copyright &#194;&#169; 1985, 1987, 1988, 1994, 1999, 2002 Adobe Systems Incorporated.  All Rights Reserved. &#194;&#169; 1981, 1999, 2002 Heidelberger Druckmaschinen AG. All rights reserved.
</metadata>
<defs>
<font id="HelveticaLTStd-Light" horiz-adv-x="556" >
  <font-face 
    font-family="Helvetica LT Std Light"
    font-weight="300"
    font-stretch="normal"
    units-per-em="1000"
    panose-1="2 11 4 3 2 2 2 2 2 4"
    ascent="718"
    descent="-282"
    x-height="518"
    cap-height="720"
    bbox="-164 -250 1000 978.999"
    underline-thickness="50"
    underline-position="-50"
    unicode-range="U+0020-U+FB02"
  />
<missing-glyph horiz-adv-x="500" 
d="M0 0v700h500v-700h-500zM250 395l170 255h-340zM280 350l170 -255v510zM80 50h340l-170 255zM50 605v-510l170 255z" />
    <glyph glyph-name="fi" unicode="fi" horiz-adv-x="500" 
d="M92 468h-79v50h79v82c0 89.333 36.667 134 110 134c19.333 0 36 -1.33301 50 -4v-55c-13.333 3.33301 -25.333 5 -36 5c-14.667 0 -26.667 -2.66699 -36 -8s-15.833 -13.5 -19.5 -24.5s-6 -20.833 -7 -29.5s-1.5 -20.667 -1.5 -36v-64h98v-50h-98v-468h-60v468zM432 0
h-60v518h60v-518zM435 720v-89h-66v89h66z" />
    <glyph glyph-name="fl" unicode="fl" horiz-adv-x="500" 
d="M92 468h-79v50h79v82c0 89.333 36.667 134 110 134c19.333 0 36 -1.33301 50 -4v-55c-13.333 3.33301 -25.333 5 -36 5c-14.667 0 -26.667 -2.66699 -36 -8s-15.833 -13.5 -19.5 -24.5s-6 -20.833 -7 -29.5s-1.5 -20.667 -1.5 -36v-64h98v-50h-98v-468h-60v468zM432 0
h-60v720h60v-720z" />
    <glyph glyph-name=".notdef" horiz-adv-x="500" 
d="M0 0v700h500v-700h-500zM250 395l170 255h-340zM280 350l170 -255v510zM80 50h340l-170 255zM50 605v-510l170 255z" />
    <glyph glyph-name="space" unicode=" " horiz-adv-x="278" 
 />
    <glyph glyph-name="exclam" unicode="!" horiz-adv-x="333" 
d="M144 181l-14 315v224h73v-224l-14 -315h-45zM203 0h-73v88h73v-88z" />
    <glyph glyph-name="quotedbl" unicode="&#x22;" horiz-adv-x="278" 
d="M57 494v226h52v-226h-52zM168 494v226h52v-226h-52z" />
    <glyph glyph-name="numbersign" unicode="#" 
d="M504 287v-59h-111l-32 -228h-59l31 228h-137l-34 -228h-59l34 228h-110v59h119l21 140h-112v59h120l32 212h60l-32 -212h136l31 212h59l-31 -212h100v-59h-108l-20 -140h102zM363 427h-136l-22 -140h138z" />
    <glyph glyph-name="dollar" unicode="$" 
d="M255 394l0.000976562 257.001c-38 0 -70 -11.667 -96 -35s-39 -53.333 -39 -90c0 -40 11.167 -68.833 33.5 -86.5s56.166 -32.834 101.499 -45.501zM302.001 322.001v-286.999c42 0 77.833 13.833 107.5 41.5s44.5 62.167 44.5 103.5c0 45.333 -12.667 77.666 -38 96.999
s-63.333 34.333 -114 45zM302.001 -18.998l0.00195312 -76.002h-46v76c-119.333 6.66699 -190.666 64.334 -213.999 173.001c-2 11.333 -3.66699 27.666 -5 48.999h65c0 -45.333 14.333 -84 43 -116s65.334 -49.333 110.001 -52v297c-31.333 7.33301 -57.5 15.333 -78.5 24
s-41.5 20 -61.5 34s-34.833 32 -44.5 54s-14.5 48.333 -14.5 79c0 54.667 19.5 99 58.5 133s86.167 50.333 141.5 49v61h46v-61c56 0.666992 102 -14.666 138 -45.999s55 -74.666 57 -129.999h-65c-0.666992 36 -13.334 65.333 -38.001 88s-55.334 34 -92.001 34v-266
c37.333 -8.66699 67.333 -17.334 90 -26.001s44.667 -20.834 66 -36.501s36.666 -36 45.999 -61s14 -55.833 14 -92.5c0 -55.333 -21.833 -100.166 -65.5 -134.499s-93.834 -52.166 -150.501 -53.499z" />
    <glyph glyph-name="percent" unicode="%" horiz-adv-x="889" 
d="M658 331c45.333 0 83.833 -16.1689 115.5 -48.502s47.5 -71.166 47.5 -116.499c0 -46 -15.667 -85.167 -47 -117.5s-70 -48.5 -116 -48.5c-45.333 0 -84.333 16.333 -117 49s-49 71.667 -49 117c0 44.667 16.333 83.334 49 116.001s71.667 49 117 49zM657 273.998
c-30 0 -55.501 -10.832 -76.501 -32.499s-31.5 -47.5 -31.5 -77.5c0 -28.667 10.833 -53.667 32.5 -75s46.834 -32 75.501 -32s53.667 10.833 75 32.5s32 47.167 32 76.5s-10.667 54.666 -32 75.999s-46.333 32 -75 32zM397.999 531.999
c0 -45.333 -16.333 -84.166 -49 -116.499s-71.667 -48.5 -117 -48.5s-84.166 16.167 -116.499 48.5s-48.5 71.166 -48.5 116.499s16.167 84.333 48.5 117s71.166 49 116.499 49s84.333 -16.333 117 -49s49 -71.667 49 -117zM231.999 423.999
c29.333 0 54.833 10.8311 76.5 32.498s32.5 46.834 32.5 75.501c0 29.333 -10.833 54.833 -32.5 76.5s-47.167 32.5 -76.5 32.5s-54.666 -10.833 -75.999 -32.5s-32 -47.167 -32 -76.5s10.667 -54.666 32 -75.999s46.666 -32 75.999 -32zM667.999 704.997l-397 -719h-52
l397 719h52z" />
    <glyph glyph-name="ampersand" unicode="&#x26;" horiz-adv-x="667" 
d="M454 131l-205.001 244c-41.333 -19.333 -75 -45.5 -101 -78.5s-39 -68.5 -39 -106.5c0 -46.667 15.333 -84.167 46 -112.5s69.334 -42.5 116.001 -42.5c68 0 129 32 183 96zM377.999 540c12.667 28.667 10.666 56.833 -6.00098 84.5s-43 41.5 -79 41.5
c-26 0 -48.5 -8 -67.5 -24s-28.5 -36.667 -28.5 -62c0 -30.667 25 -75.667 75 -135c20 12 34.333 20.833 43 26.5s19.834 15 33.501 28s23.5 26.5 29.5 40.5zM306.998 399.999l181 -213.999c20 33.333 30 80 30 140h59c-3.33301 -79.333 -20 -142 -50 -188l117 -138h-81
l-70 85c-30.667 -36.667 -64 -63.167 -100 -79.5s-78.333 -24.5 -127 -24.5c-64 0 -117.5 19.833 -160.5 59.5s-64.5 91.167 -64.5 154.5c0 50.667 15.833 94.5 47.5 131.5s73.167 67.5 124.5 91.5c-51.333 59.333 -77 113 -77 161c0 44 15.5 78.5 46.5 103.5
s69.5 37.5 115.5 37.5c44 0 80.167 -13.5 108.5 -40.5s42.5 -59.833 42.5 -98.5c0 -22.667 -3.33301 -43 -10 -61s-18 -34.5 -34 -49.5s-30.167 -26.833 -42.5 -35.5s-30.833 -20.334 -55.5 -35.001z" />
    <glyph glyph-name="quotesingle" unicode="'" horiz-adv-x="222" 
d="M85 494v226h52v-226h-52z" />
    <glyph glyph-name="parenleft" unicode="(" horiz-adv-x="333" 
d="M226 739l51 0.000976562c-102 -148 -153 -304 -153 -468c0 -156 51 -310 153 -462h-51c-59.333 82 -102.666 157.833 -129.999 227.5s-41 149.5 -41 239.5c0 87.333 14.167 167.166 42.5 239.499s71.166 146.833 128.499 223.5z" />
    <glyph glyph-name="parenright" unicode=")" horiz-adv-x="333" 
d="M107 -191l-51 -0.000976562c102 148 153 304 153 468c0 156 -51 310 -153 462h51c59.333 -82 102.666 -157.833 129.999 -227.5s41 -149.5 41 -239.5c0 -87.333 -14.167 -167.166 -42.5 -239.499s-71.166 -146.833 -128.499 -223.5z" />
    <glyph glyph-name="asterisk" unicode="*" horiz-adv-x="389" 
d="M62 646l111 -43v117h42v-117l114 42l15 -44l-114 -37l75 -106l-39 -24l-74 108l-78 -106l-35 27l77 101l-112 40z" />
    <glyph glyph-name="plus" unicode="+" horiz-adv-x="660" 
d="M300 280v220h60v-220h220v-60h-220v-220h-60v220h-220v60h220z" />
    <glyph glyph-name="comma" unicode="," horiz-adv-x="278" 
d="M175 88v-118c0 -56 -24.333 -91.667 -73 -107v37c22.667 14 34 36 34 66v34h-34v88h73z" />
    <glyph glyph-name="hyphen" unicode="-" horiz-adv-x="333" 
d="M40 291h253v-62h-253v62z" />
    <glyph glyph-name="period" unicode="." horiz-adv-x="278" 
d="M175 0h-73v88h73v-88z" />
    <glyph glyph-name="slash" unicode="/" horiz-adv-x="278" 
d="M288 739l-235 -829h-56l235 829h56z" />
    <glyph glyph-name="zero" unicode="0" 
d="M452 347c0 42.667 -2.33203 80.3301 -6.99902 112.997s-13 64.334 -25 95.001s-30.167 54.334 -54.5 71.001s-54.166 25 -89.499 25c-115.333 0 -173 -103.667 -173 -311c0 -97.333 13.167 -171.666 39.5 -222.999s71.5 -77 135.5 -77c36 0 66.167 8.83301 90.5 26.5
s42.166 42.667 53.499 75s19.166 64.5 23.499 96.5s6.5 68.333 6.5 109zM278.001 704.996c40 0 74.8359 -7.66797 104.503 -23.001s52.834 -34.5 69.501 -57.5s30 -51.667 40 -86s16.5 -66.666 19.5 -96.999s4.5 -64.166 4.5 -101.499c0 -50.667 -3.5 -95.667 -10.5 -135
s-18.833 -76.333 -35.5 -111s-41.167 -61.334 -73.5 -80.001s-71.833 -28 -118.5 -28s-86.334 9.33301 -119.001 28s-57.334 45.5 -74.001 80.5s-28.5 72.667 -35.5 113s-10.5 86.833 -10.5 139.5c0 39.333 1.66699 74.833 5 106.5s10.166 63.667 20.499 96
s24.166 59.5 41.499 81.5s40.5 39.833 69.5 53.5s63.167 20.5 102.5 20.5z" />
    <glyph glyph-name="one" unicode="1" 
d="M302 0v524.002h-182v42c25.333 1.33301 45.333 3.16602 60 5.49902s30.667 6.33301 48 12s31 13.167 41 22.5s19.167 22.166 27.5 38.499s14.5 36.5 18.5 60.5h51v-705h-64z" />
    <glyph glyph-name="two" unicode="2" 
d="M137 474l-68.0029 0.000976562c0 69.333 20.833 125.166 62.5 167.499s97.167 63.5 166.5 63.5c68.667 0 122 -18.333 160 -55s57 -83.334 57 -140.001c0 -35.333 -7 -67.333 -21 -96s-33.333 -53.167 -58 -73.5s-49.167 -37.833 -73.5 -52.5s-52 -30.5 -83 -47.5
s-54.833 -31.833 -71.5 -44.5c-28 -21.333 -50 -42.833 -66 -64.5s-24.667 -47.5 -26 -77.5h393v-54h-461c0.666992 37.333 4.83398 69.333 12.501 96s21.834 52 42.501 76c22 26 47.333 50 76 72s54.834 39.667 78.501 53s47.5 27.666 71.5 42.999s44.167 29.833 60.5 43.5
s29.666 30.834 39.999 51.501s15.5 44.334 15.5 71.001c0 44.667 -14.667 80 -44 106s-66.333 39 -111 39c-45.333 0 -82.666 -17.5 -111.999 -52.5s-43 -76.5 -41 -124.5z" />
    <glyph glyph-name="three" unicode="3" 
d="M221 340l-0.000976562 52.001c65.333 -0.666992 115.333 9 150 29s52 55.333 52 106c0 41.333 -14.167 72.333 -42.5 93s-64.166 31 -107.499 31c-44.667 0 -81 -14.167 -109 -42.5s-42 -64.5 -42 -108.5h-64c0 62.667 22.667 115.334 68 158.001
c34.667 31.333 88 47 160 47c58.667 0 106.834 -14.833 144.501 -44.5s56.5 -72.834 56.5 -129.501c0 -76 -33.333 -128.333 -100 -157c83.333 -26 125 -84 125 -174c0 -60 -20.167 -110.167 -60.5 -150.5s-95.833 -61.5 -166.5 -63.5
c-82.667 0 -143.334 16.167 -182.001 48.5s-61.667 88.833 -69 169.5h64c0 -52.667 15.833 -93.167 47.5 -121.5s74.167 -42.5 127.5 -42.5c50 0 92.167 16 126.5 48s50.5 69 48.5 111c-2 54 -23.667 92.167 -65 114.5s-95.333 31.166 -162 26.499z" />
    <glyph glyph-name="four" unicode="4" 
d="M358 0v174h-322v55l328 469h58v-470h98v-54h-98v-174h-64zM358 602l-259 -374h259v374z" />
    <glyph glyph-name="five" unicode="5" 
d="M35 183h64c6.66699 -46.667 25.5 -82.167 56.5 -106.5s70.167 -36.5 117.5 -36.5c51.333 0 92.333 17.167 123 51.5s46 77.166 46 128.499c0 53.333 -16 96.5 -48 129.5s-74.333 49.5 -127 49.5c-64.667 0 -115.667 -24.333 -153 -73l-53 7l57 365h350v-54h-296l-44 -237
c27.333 18 52 30.167 74 36.5s49 9.5 81 9.5c66 0 119.667 -21 161 -63s62 -98.667 62 -170s-21.833 -128.166 -65.5 -170.499s-96.167 -63.5 -157.5 -63.5c-155.333 0 -238 65.667 -248 197z" />
    <glyph glyph-name="six" unicode="6" 
d="M503 532l-65.999 0.00195312c-7.33301 37.333 -22.333 66.5 -45 87.5s-52.334 31.5 -89.001 31.5c-24 0 -45.667 -3.83301 -65 -11.5s-35.333 -16.834 -48 -27.501s-24 -25.834 -34 -45.501s-17.667 -37.167 -23 -52.5s-10.166 -35.833 -14.499 -61.5
s-7.16602 -45.834 -8.49902 -60.501s-3 -34.667 -5 -60c13.333 18 24.166 31.667 32.499 41s20.166 20.333 35.499 33s32.5 21.834 51.5 27.501s40.833 8.5 65.5 8.5c70.667 0 125.667 -20.167 165 -60.5s59 -95.833 59 -166.5c0 -71.333 -19.833 -127.333 -59.5 -168
s-95.167 -61 -166.5 -61c-76 0 -136.167 26.667 -180.5 80s-66.5 139 -66.5 257c0 36 2.16699 70.667 6.5 104s12.5 67.333 24.5 102s27.167 64.667 45.5 90s42.833 46 73.5 62s66 24 106 24c56.667 0 103.5 -15 140.5 -45s58.833 -72.667 65.5 -128zM288.001 388.002
c-48 0 -86.5 -16.834 -115.5 -50.501s-43.5 -75.167 -43.5 -124.5c0 -45.333 13.333 -85.5 40 -120.5s66.667 -52.5 120 -52.5c54.667 0 95.167 17.333 121.5 52s39.5 76.334 39.5 125.001c0 114 -54 171 -162 171z" />
    <glyph glyph-name="seven" unicode="7" 
d="M59 634l-0.000976562 64.001h449v-60c-91.333 -103.333 -160.666 -214.333 -207.999 -333s-73.333 -220.334 -78 -305.001h-70c6.66699 98 37 206.333 91 325s116.667 221.667 188 309h-372z" />
    <glyph glyph-name="eight" unicode="8" 
d="M279 345c-51.333 0 -92.666 -12.666 -123.999 -37.999s-47 -63 -47 -113c0 -44.667 16 -81.5 48 -110.5s74.333 -43.5 127 -43.5c47.333 0 86.666 14.667 117.999 44s47 67.333 47 114c0 47.333 -15.833 83.666 -47.5 108.999s-72.167 38 -121.5 38zM276 651.001
c-41.333 0 -75.501 -11.167 -102.501 -33.5s-40.5 -53.5 -40.5 -93.5c0 -41.333 14.333 -72.5 43 -93.5s64.334 -31.5 107.001 -31.5c41.333 0 74.333 11.333 99 34s37 57.667 37 105c0 75.333 -47.667 113 -143 113zM166.999 379.001
c-37.333 23.333 -62.9971 44.999 -76.9971 64.999s-21 49.667 -21 89c0 48.667 19.667 90 59 124s86.666 50 141.999 48c59.333 0 109.666 -14.5 150.999 -43.5s62 -71.833 62 -128.5c0 -74 -32 -126.667 -96 -158c38.667 -14 69.167 -36.5 91.5 -67.5
s33.5 -66.833 33.5 -107.5c0 -68 -22.333 -120.667 -67 -158s-105 -56 -181 -56c-56.667 0 -107.5 18.5 -152.5 55.5s-67.5 87.833 -67.5 152.5c0 42.667 10.667 80.334 32 113.001s51.666 56.667 90.999 72z" />
    <glyph glyph-name="nine" unicode="9" 
d="M53 155h65c15.333 -76.667 61 -115 137 -115c32 0 60 7 84 21s42.5 31.167 55.5 51.5s23.833 45.833 32.5 76.5s14.5 58 17.5 82s5.16699 51.333 6.5 82l-2 2c-44.667 -73.333 -108 -110 -190 -110c-66 0 -118.833 20.667 -158.5 62s-59.5 96.333 -59.5 165
c0 69.333 19.333 125.5 58 168.5s95 64.5 169 64.5c164.667 0 247 -118.667 247 -356c0 -116 -23.5 -205.5 -70.5 -268.5s-109.167 -94.5 -186.5 -94.5c-57.333 0 -104.5 14.333 -141.5 43s-58.167 70.667 -63.5 126zM268 651
c-53.333 -0.666992 -93.833 -17.001 -121.5 -49.001s-41.5 -76 -41.5 -132c0 -53.333 14.333 -95.166 43 -125.499s68.667 -45.5 120 -45.5c48.667 0 87.167 16.833 115.5 50.5s42.5 75.167 42.5 124.5c0 52.667 -14.167 95.167 -42.5 127.5s-66.833 48.833 -115.5 49.5z
" />
    <glyph glyph-name="colon" unicode=":" horiz-adv-x="278" 
d="M175 0h-73v88h73v-88zM175 404h-73v88h73v-88z" />
    <glyph glyph-name="semicolon" unicode=";" horiz-adv-x="278" 
d="M175 88v-118c0 -56 -24.333 -91.667 -73 -107v37c22.667 14 34 36 34 66v34h-34v88h73zM175 404h-73v88h73v-88z" />
    <glyph glyph-name="less" unicode="&#x3c;" horiz-adv-x="660" 
d="M159 255l421 -197v-64l-500 235v53l500 223v-64z" />
    <glyph glyph-name="equal" unicode="=" horiz-adv-x="660" 
d="M580 378v-60h-500v60h500zM580 184v-60h-500v60h500z" />
    <glyph glyph-name="greater" unicode="&#x3e;" horiz-adv-x="660" 
d="M580 282v-53l-500 -235v64l421 197l-421 186v64z" />
    <glyph glyph-name="question" unicode="?" horiz-adv-x="500" 
d="M274 182l-58 0.00390625c-0.666992 43.333 2.33301 78.833 9 106.5s22 54.167 46 79.5l44.5 43c21 20 36.667 35.667 47 47s20.5 26.166 30.5 44.499s15 36.166 15 53.499c0 37.333 -14 68.166 -42 92.499s-66 36.5 -114 36.5s-85.833 -16 -113.5 -48
s-40.834 -72.333 -39.501 -121h-61c-4.66699 65.333 13.666 118.833 54.999 160.5s95 62.5 161 62.5c67.333 0 120.5 -17 159.5 -51s58.5 -79.667 58.5 -137c0 -26.667 -6.66699 -51.834 -20 -75.501s-28.666 -43 -45.999 -58s-37.166 -33.333 -59.499 -55
s-39.5 -42.167 -51.5 -61.5c-14 -22 -21 -61.667 -21 -119zM283 0.00390625h-73v88h73v-88z" />
    <glyph glyph-name="at" unicode="@" horiz-adv-x="800" 
d="M684 167h58.9971c-31.333 -57.333 -76.5 -102.666 -135.5 -135.999s-121.833 -50 -188.5 -50c-106.667 0 -196.5 37.167 -269.5 111.5s-109.5 164.5 -109.5 270.5c0 103.333 37 191.833 111 265.5s162 110.5 264 110.5c96.667 0 178.334 -30 245.001 -90
s100 -135.333 100 -226c0 -76.667 -24.833 -144.5 -74.5 -203.5s-102.5 -88.5 -158.5 -88.5c-19.333 0 -37.166 4.5 -53.499 13.5s-27.166 21.833 -32.499 38.5c-32 -33.333 -71.667 -50 -119 -50c-42 0 -75.667 14.5 -101 43.5s-38 64.5 -38 106.5c0 46 10.167 92 30.5 138
s50 85 89 117s81.833 48 128.5 48c24 0 46.167 -5.83301 66.5 -17.5s35.5 -27.834 45.5 -48.501l15 46h67l-101 -302c-4 -12.667 -7 -23.167 -9 -31.5s-3 -16.666 -3 -24.999s2.5 -14.5 7.5 -18.5s12.167 -6 21.5 -6c40 0 76.5 26.667 109.5 80s49.5 107.666 49.5 162.999
c0 78.667 -27.5 142.167 -82.5 190.5s-121.833 72.5 -200.5 72.5c-91.333 0 -167 -32.5 -227 -97.5s-90 -143.5 -90 -235.5c0 -90.667 30.667 -167.5 92 -230.5s137 -94.5 227 -94.5c52 0 101.667 12 149 36s86 57.333 116 100zM336.997 196c42 0.666992 80 31.167 114 91.5
s51 115.833 51 166.5c0 20 -6.5 37.167 -19.5 51.5s-29.5 21.5 -49.5 21.5c-48.667 0 -89.834 -26.833 -123.501 -80.5s-50.5 -106.5 -50.5 -158.5c0 -25.333 6.83301 -47 20.5 -65s32.834 -27 57.501 -27z" />
    <glyph glyph-name="A" unicode="A" horiz-adv-x="667" 
d="M85 0h-70l283 720h77l276 -720h-70l-83 226h-328zM334 662l-141 -378h282z" />
    <glyph glyph-name="B" unicode="B" horiz-adv-x="667" 
d="M149 344v-285.999h173c80.667 0 137.5 9.33301 170.5 28s49.5 57.667 49.5 117c0 55.333 -17.5 92.666 -52.5 111.999s-88.167 29 -159.5 29h-181zM149 662.001v-259.999h172c68 0 116.333 11.333 145 34s43 57 43 103c0 45.333 -15.167 77.166 -45.5 95.499
s-82.833 27.5 -157.5 27.5h-157zM375 0.00195312l-294 0.00195312v720h260c157.333 0 236 -60.333 236 -181c0 -46.667 -11 -82.834 -33 -108.501s-49.333 -41.167 -82 -46.5v-2c48.667 -7.33301 85.5 -26.833 110.5 -58.5s37.5 -71.834 37.5 -120.501
c0 -135.333 -78.333 -203 -235 -203z" />
    <glyph glyph-name="C" unicode="C" horiz-adv-x="722" 
d="M662 511l-70.002 -0.000976562c-13.333 60 -38.666 103.333 -75.999 130s-87.666 40 -150.999 40c-82 0 -144 -30.167 -186 -90.5s-63 -136.5 -63 -228.5c0 -34 2.5 -66 7.5 -96s13.667 -59.167 26 -87.5s28 -52.5 47 -72.5s43.333 -36.167 73 -48.5
s63.5 -18.5 101.5 -18.5c60 0 109.5 18 148.5 54s65.5 84 79.5 144h71c-18 -77.333 -52 -139.333 -102 -186s-120 -70 -210 -70c-54 0 -101.333 10 -142 30s-73 47.833 -97 83.5s-41.833 75.667 -53.5 120s-17.5 92.833 -17.5 145.5c0 130.667 30.333 226.5 91 287.5
s142 91.5 244 91.5c75.333 0 137.833 -19.667 187.5 -59s80.167 -95.666 91.5 -168.999z" />
    <glyph glyph-name="D" unicode="D" horiz-adv-x="722" 
d="M327 0l-246.002 0.000976562v720h246c48 0 89.333 -3.5 124 -10.5s67.334 -21.5 98.001 -43.5c42.667 -31.333 73.334 -75.333 92.001 -132s28 -114.334 28 -173.001c0 -118.667 -29 -209.667 -87 -273c-52 -58.667 -137 -88 -255 -88zM148.998 662.001
l-0.000976562 -603.999h163c70.667 0 127 11 169 33c22.667 12 42.334 28.167 59.001 48.5s29.167 43.166 37.5 68.499s14.333 50.5 18 75.5s5.5 50.833 5.5 77.5c0 138.667 -41.333 230 -124 274c-33.333 18 -88.333 27 -165 27h-163z" />
    <glyph glyph-name="E" unicode="E" horiz-adv-x="611" 
d="M570 0h-489v720h479v-58h-411v-260h371v-58h-371v-286h421v-58z" />
    <glyph glyph-name="F" unicode="F" 
d="M142 0h-68v720h464v-58h-396v-260h360v-58h-360v-344z" />
    <glyph glyph-name="G" unicode="G" horiz-adv-x="778" 
d="M630 314l-242.998 0.00292969v58h308v-372h-58v123c-26.667 -46 -61.334 -81.167 -104.001 -105.5s-97.667 -36.5 -165 -36.5c-94.667 0 -170.834 32.833 -228.501 98.5s-86.5 160.5 -86.5 284.5c0 111.333 28.333 201.666 85 270.999s139.334 104 248.001 104
c78 0 143.833 -19.333 197.5 -58s88.167 -95.334 103.5 -170.001h-70c-12 52.667 -38.833 94.167 -80.5 124.5s-90.167 45.5 -145.5 45.5c-91.333 0 -159.166 -30.667 -203.499 -92s-66.5 -145.333 -66.5 -252c0 -83.333 23.667 -153.833 71 -211.5
s110.666 -86.5 189.999 -86.5c43.333 0 84.833 10.167 124.5 30.5s70.5 52.166 92.5 95.499c19.333 38 29.666 87.667 30.999 149z" />
    <glyph glyph-name="H" unicode="H" horiz-adv-x="722" 
d="M148 0h-68v720h68v-309h426v309h68v-720h-68v353h-426v-353z" />
    <glyph glyph-name="I" unicode="I" horiz-adv-x="278" 
d="M173 0h-68v720h68v-720z" />
    <glyph glyph-name="J" unicode="J" horiz-adv-x="500" 
d="M22 228l67.999 -0.00195312c0 -22 0.333008 -40.167 1 -54.5s3.33398 -30.666 8.00098 -48.999s11.5 -32.666 20.5 -42.999s22 -19.333 39 -27s37.5 -11.5 61.5 -11.5c45.333 0 77.833 13 97.5 39s29.5 65 29.5 117v521h68v-523c0 -144 -67.667 -216 -203 -216
c-38.667 0 -71.167 6.5 -97.5 19.5s-45.833 32 -58.5 57s-21.5 50.667 -26.5 77s-7.5 57.5 -7.5 93.5z" />
    <glyph glyph-name="K" unicode="K" horiz-adv-x="667" 
d="M153 0h-68v720h68v-373l369 373h77l-284 -287l334 -433h-83l-300 391l-113 -113v-278z" />
    <glyph glyph-name="L" unicode="L" 
d="M535 0h-454v720h68v-662h386v-58z" />
    <glyph glyph-name="M" unicode="M" horiz-adv-x="833" 
d="M146 0h-68v720h104l236 -635h2l232 635h103v-720h-68v642h-2l-236 -642h-64l-237 642h-2v-642z" />
    <glyph glyph-name="N" unicode="N" horiz-adv-x="722" 
d="M563 0l-414 628h-2v-628h-68v720h77l416 -629h2v629h68v-720h-79z" />
    <glyph glyph-name="O" unicode="O" horiz-adv-x="778" 
d="M53 359c-0.666992 109.333 28.501 200 87.501 272s140.5 108 244.5 108c108 0 191.5 -35.667 250.5 -107s88.5 -162.333 88.5 -273c0 -108.667 -29.333 -198.834 -88 -270.501s-141.334 -107.5 -248.001 -107.5s-189.167 35.833 -247.5 107.5
s-87.5 161.834 -87.5 270.501zM389.001 39c88 0 154.5 30.5 199.5 91.5s67.5 137.167 67.5 228.5c0 100 -24 178.667 -72 236s-113.667 86 -197 86c-58.667 0 -108.667 -15.5 -150 -46.5s-71 -70.167 -89 -117.5s-27 -100 -27 -158c0 -92 22.5 -168.333 67.5 -229
s111.833 -91 200.5 -91z" />
    <glyph glyph-name="P" unicode="P" horiz-adv-x="611" 
d="M146 0l-67.9961 -0.000976562v720h263c156.667 0 235 -67 235 -201c0 -31.333 -5.33301 -59 -16 -83s-24.834 -43.167 -42.501 -57.5s-38.834 -26.166 -63.501 -35.499s-49.334 -15.833 -74.001 -19.5s-51.334 -5.5 -80.001 -5.5h-154v-318zM146.004 375.999h156
c69.333 0 121 10.333 155 31s51 59.667 51 117c0 92 -62 138 -186 138h-176v-286z" />
    <glyph glyph-name="Q" unicode="Q" horiz-adv-x="778" 
d="M611 68l96.002 -74l-38 -46l-106 82c-51.333 -32.667 -111.333 -49 -180 -49c-106.667 0 -189.167 35.833 -247.5 107.5s-87.5 161.834 -87.5 270.501c0 50.667 7 98.667 21 144s34.167 85.666 60.5 120.999s61.166 63.333 104.499 84s92 31 146 31
c103.333 0 185.666 -33.333 246.999 -100s92 -160 92 -280c0 -124 -36 -221 -108 -291zM464.002 181l97.001 -73.9971c60 57.333 90 141.333 90 252c0 104 -24.833 183.667 -74.5 239s-114.5 83 -194.5 83c-44.667 0 -84.334 -8.83301 -119.001 -26.5
s-62.5 -41.834 -83.5 -72.501s-36.833 -64.834 -47.5 -102.501s-16 -77.834 -16 -120.501c0 -92.667 22.5 -169.167 67.5 -229.5s111.833 -90.5 200.5 -90.5c48 0 90 10.667 126 32l-82 63z" />
    <glyph glyph-name="R" unicode="R" horiz-adv-x="667" 
d="M148 385h212c54 0 97.333 11.833 130 35.5s49 59.5 49 107.5c0 89.333 -58.333 134 -175 134h-216v-277zM362 327l-214 0.00195312v-327h-68v720h282c163.333 0 245 -63 245 -189c0 -45.333 -9 -81.333 -27 -108s-48 -49.334 -90 -68.001
c20 -6.66699 36.5 -16.834 49.5 -30.501s22.333 -30.667 28 -51s9.33398 -38.166 11.001 -53.499s2.83398 -35.333 3.50098 -60c1.33301 -52 4.33301 -88.667 9 -110s11.667 -35.666 21 -42.999v-7h-75c-10.667 19.333 -18.334 62.166 -23.001 128.499
s-7.66699 103.166 -9 110.499c-7.33301 35.333 -22.833 58.833 -46.5 70.5s-55.834 17.5 -96.501 17.5z" />
    <glyph glyph-name="S" unicode="S" horiz-adv-x="611" 
d="M43 215l66 -0.00195312c10 -117.333 79 -176 207 -176c60.667 0 106.334 14.167 137.001 42.5s46 63.833 46 106.5c0 30 -8 55 -24 75s-37 34.833 -63 44.5s-54.5 18.167 -85.5 25.5s-62.167 15.333 -93.5 24s-60 19.667 -86 33s-47 33.166 -63 59.499s-24 58.5 -24 96.5
c0 53.333 21.5 98.833 64.5 136.5s102.833 56.5 179.5 56.5c77.333 0 137.166 -20.333 179.499 -61s63.166 -92 62.499 -154h-65c0 52 -17 91.167 -51 117.5s-76 39.5 -126 39.5c-64 0 -111 -16.167 -141 -48.5s-41.667 -69.166 -35 -110.499
c4 -24.667 15.333 -45.167 34 -61.5s41 -28.666 67 -36.999s54.333 -15.666 85 -21.999s60.834 -13.666 90.501 -21.999s56.667 -19.333 81 -33s44 -33.5 59 -59.5s22.5 -58 22.5 -96c0 -66 -23.167 -117.5 -69.5 -154.5s-110.833 -55.5 -193.5 -55.5
c-78 0 -141 20.167 -189 60.5s-72 98.166 -72 173.499z" />
    <glyph glyph-name="T" unicode="T" 
d="M16 662v58h524v-58h-228v-662h-68v662h-228z" />
    <glyph glyph-name="U" unicode="U" horiz-adv-x="722" 
d="M82 271l0.000976562 449h68v-429c0 -88.667 16.667 -152.834 50 -192.501s87 -59.5 161 -59.5c76 0 130.167 20.333 162.5 61s48.5 104.334 48.5 191.001v429h68v-449c0 -94 -23.5 -165.833 -70.5 -215.5s-116.5 -74.5 -208.5 -74.5c-92.667 0 -162.334 25 -209.001 75
s-70 121.667 -70 215z" />
    <glyph glyph-name="V" unicode="V" horiz-adv-x="611" 
d="M268 0l-250 720h71l217 -640l216 640h71l-250 -720h-75z" />
    <glyph glyph-name="W" unicode="W" horiz-adv-x="889" 
d="M482 720l164 -624h2l157 624h70l-189 -720h-75l-167 636h-2l-167 -636h-75l-186 720h68l155 -624h2l167 624h76z" />
    <glyph glyph-name="X" unicode="X" horiz-adv-x="611" 
d="M514 0l-210 318l-209 -318h-77l248 370l-238 350h79l197 -303l198 303h79l-236 -350l247 -370h-78z" />
    <glyph glyph-name="Y" unicode="Y" horiz-adv-x="611" 
d="M90 720l212 -347l217 347h79l-261 -406v-314h-68v309l-257 411h78z" />
    <glyph glyph-name="Z" unicode="Z" horiz-adv-x="611" 
d="M579 0h-548v57l461 605h-422v58h506v-57l-461 -605h464v-58z" />
    <glyph glyph-name="bracketleft" unicode="[" horiz-adv-x="333" 
d="M280 -191h-189v930h191v-50h-127v-830h125v-50z" />
    <glyph glyph-name="backslash" unicode="\" horiz-adv-x="278" 
d="M225 -90l-235 829h56l235 -829h-56z" />
    <glyph glyph-name="bracketright" unicode="]" horiz-adv-x="333" 
d="M242 739v-930h-191v50h127v830h-125v50h189z" />
    <glyph glyph-name="asciicircum" unicode="^" horiz-adv-x="660" 
d="M131 245h-58l230 453h52l231 -453h-57l-201 392z" />
    <glyph glyph-name="underscore" unicode="_" horiz-adv-x="500" 
d="M0 -75h500v-50h-500v50z" />
    <glyph glyph-name="grave" unicode="`" horiz-adv-x="333" 
d="M183 574l-138 139h78l111 -139h-51z" />
    <glyph glyph-name="a" unicode="a" 
d="M411 191v81c-34 -14 -85.667 -23.667 -155 -29c-97.333 -7.33301 -146 -44 -146 -110c0 -30 11 -53 33 -69s48.333 -24 79 -24c52 0 96.5 12.833 133.5 38.5s55.5 63.167 55.5 112.5zM227 291l82.998 11c34.667 3.33301 61 9 79 17c14.667 6.66699 22 24.667 22 54
c0 70 -43 105 -129 105c-44.667 0 -79.667 -8.83301 -105 -26.5s-40.666 -47.834 -45.999 -90.501h-61c4 58 25.333 101 64 129s88.334 42 149.001 42c57.333 0 103 -12.667 137 -38s51 -66.333 51 -123v-282c0 -24 4.16699 -38.833 12.5 -44.5s25.166 -4.16699 50.499 4.5
v-47c-20 -6.66699 -35.667 -10 -47 -10c-8.66699 0 -17.667 1 -27 3c-30.667 4.66699 -46.667 30.334 -48 77.001c-51.333 -57.333 -115.666 -86 -192.999 -86c-48.667 0 -89.667 13 -123 39s-50 62.667 -50 110c0 88 60.333 140 181 156z" />
    <glyph glyph-name="b" unicode="b" horiz-adv-x="611" 
d="M139 261c0 -64.667 15.499 -117.667 46.499 -159s73.833 -62 128.5 -62c52 0 94.333 18 127 54s49.334 85.667 50.001 149c2.66699 68 -11.333 124.167 -42 168.5s-75.667 66.5 -135 66.5c-52.667 0 -95 -21 -127 -63s-48 -93.333 -48 -154zM138.999 91
l-0.00292969 -91.001h-60v720h60v-285c18.667 30.667 44.834 54.5 78.501 71.5s69.167 25.5 106.5 25.5c74.667 0 131.834 -26.167 171.501 -78.5s59.5 -117.5 59.5 -195.5c0 -82 -19.167 -147.833 -57.5 -197.5s-97.166 -74.5 -176.499 -74.5
c-34.667 0 -69.167 9.33301 -103.5 28s-59.833 44.334 -76.5 77.001h-2z" />
    <glyph glyph-name="c" unicode="c" 
d="M500 355h-60.998c-22.667 82 -74 123 -154 123c-57.333 0 -100.666 -21.667 -129.999 -65s-44 -95 -44 -155c0 -60.667 14.5 -112.167 43.5 -154.5s72.5 -63.5 130.5 -63.5c44 0 79.667 12.333 107 37s44.666 58.667 51.999 102h64
c-10.667 -60 -34.834 -107.167 -72.501 -141.5s-87.834 -51.5 -150.501 -51.5c-78.667 0 -138 25 -178 75s-60 115.667 -60 197c0 76 21.167 140.667 63.5 194s100.5 80 174.5 80c125.333 0 197 -59 215 -177z" />
    <glyph glyph-name="d" unicode="d" horiz-adv-x="611" 
d="M472 261c0 60.667 -16.001 112 -48.001 154s-74.333 63 -127 63c-59.333 0 -104.333 -22.167 -135 -66.5s-44.667 -100.5 -42 -168.5c0.666992 -63.333 17.334 -113 50.001 -149s75 -54 127 -54c54.667 0 97.5 20.667 128.5 62s46.5 94.333 46.5 159zM471.999 435
l-0.00292969 285.001h60v-720h-60v91h-2c-16.667 -32.667 -42.167 -58.334 -76.5 -77.001s-68.833 -28 -103.5 -28c-79.333 0 -138.166 24.833 -176.499 74.5s-57.5 115.5 -57.5 197.5c0 78 19.833 143.167 59.5 195.5s96.834 78.5 171.501 78.5
c37.333 0 72.833 -8.5 106.5 -25.5s59.834 -40.833 78.501 -71.5z" />
    <glyph glyph-name="e" unicode="e" 
d="M109 295h338.001c0 52.667 -14.333 96.334 -43 131.001s-69 52 -121 52c-50 0 -89.833 -17.333 -119.5 -52s-47.834 -78.334 -54.501 -131.001zM511.001 245h-401.998c-0.666992 -58.667 14.333 -107.5 45 -146.5s73.667 -58.5 129 -58.5
c39.333 0 73.166 10.5 101.499 31.5s46.833 50.167 55.5 87.5h67c-35.333 -115.333 -110 -173 -224 -173c-79.333 0 -138.833 24.833 -178.5 74.5s-59.5 115.167 -59.5 196.5c0 78 21.667 143.333 65 196s101 79 173 79s128.167 -24.833 168.5 -74.5
s60.166 -120.5 59.499 -212.5z" />
    <glyph glyph-name="f" unicode="f" horiz-adv-x="278" 
d="M97 468h-77v50h77v82c0 89.333 36.667 134 110 134c19.333 0 36 -1.33301 50 -4v-55c-13.333 3.33301 -25.333 5 -36 5c-14.667 0 -26.667 -2.66699 -36 -8s-15.833 -13.5 -19.5 -24.5s-6 -20.833 -7 -29.5s-1.5 -20.667 -1.5 -36v-64h100v-50h-100v-468h-60v468z" />
    <glyph glyph-name="g" unicode="g" horiz-adv-x="611" 
d="M472 257c0 64.667 -15.499 117.667 -46.499 159s-73.833 62 -128.5 62c-52 0 -94.333 -18 -127 -54s-49.334 -85.667 -50.001 -149c-2.66699 -68 11.333 -124.167 42 -168.5s75.667 -66.5 135 -66.5c52.667 0 95 21 127 63s48 93.333 48 154zM472.001 427
l0.00292969 91.001h60v-468c0 -37.333 -3.5 -70.666 -10.5 -99.999s-19.167 -56.833 -36.5 -82.5s-42.5 -45.334 -75.5 -59.001s-73.167 -20.5 -120.5 -20.5c-69.333 0 -122.5 15.5 -159.5 46.5s-56.833 65.167 -59.5 102.5h64c14.667 -63.333 66.334 -95 155.001 -95
c31.333 0 58.666 4.66699 81.999 14s41.5 21.333 54.5 36s23.167 33 30.5 55s12 43.5 14 64.5s2.66699 44.833 2 71.5c-18.667 -30.667 -44.834 -54.5 -78.501 -71.5s-69.167 -25.5 -106.5 -25.5c-74.667 0 -131.834 26.167 -171.501 78.5s-59.5 117.5 -59.5 195.5
c0 82 19.167 147.833 57.5 197.5s97.166 74.5 176.499 74.5c34.667 0 69.167 -9.33301 103.5 -28s59.833 -44.334 76.5 -77.001h2z" />
    <glyph glyph-name="h" unicode="h" 
d="M132 0h-60.002v720h60v-274c26.667 28.667 52.834 50.167 78.501 64.5s55.167 21.5 88.5 21.5c71.333 0 124 -24.667 158 -74c17.333 -25.333 26 -65 26 -119v-339h-60v338c0 47.333 -10.5 82.5 -31.5 105.5s-55.167 34.5 -102.5 34.5
c-35.333 0 -65.666 -9.66699 -90.999 -29s-43 -43.333 -53 -72c-8.66699 -24 -13 -56.667 -13 -98v-279z" />
    <glyph glyph-name="i" unicode="i" horiz-adv-x="222" 
d="M141 0h-60v518h60v-518zM144 631h-66v89h66v-89z" />
    <glyph glyph-name="j" unicode="j" horiz-adv-x="222" 
d="M88 518h60v-587c0 -50 -6.16699 -85 -18.5 -105s-40.833 -30 -85.5 -30c-14.667 0 -27.667 1.33301 -39 4v53c32.667 -4 54.667 -0.5 66 10.5s17 30.833 17 59.5v595zM151 720v-89h-66v89h66z" />
    <glyph glyph-name="k" unicode="k" horiz-adv-x="500" 
d="M128 0h-60v720h60v-448l254 246h82l-194 -187l217 -331h-67l-194 289l-98 -93v-196z" />
    <glyph glyph-name="l" unicode="l" horiz-adv-x="222" 
d="M141 0h-60v720h60v-720z" />
    <glyph glyph-name="m" unicode="m" horiz-adv-x="833" 
d="M124 279l0.000976562 -278.998h-60v518h60v-78h2c15.333 29.333 37.333 52 66 68s60 24 94 24c44 0 77.167 -8.66699 99.5 -26s39.833 -42 52.5 -74c34 66.667 90.333 100 169 100c34 0 62.167 -5.5 84.5 -16.5s38.833 -27 49.5 -48s17.834 -42.333 21.501 -64
s5.5 -47.167 5.5 -76.5v-327h-60v358c0 39.333 -8.33301 69.166 -25 89.499s-45.334 30.5 -86.001 30.5c-48.667 0 -87.667 -19.667 -117 -59c-22.667 -29.333 -34 -76 -34 -140v-279h-60v358c0 39.333 -8.33301 69.166 -25 89.499s-45.334 30.5 -86.001 30.5
c-48.667 0 -87.667 -19.667 -117 -59c-22.667 -29.333 -34 -76 -34 -140z" />
    <glyph glyph-name="n" unicode="n" 
d="M132 279l-0.00195312 -279h-60v518h60v-72c26.667 28.667 52.834 50.167 78.501 64.5s55.167 21.5 88.5 21.5c71.333 0 124 -24.667 158 -74c17.333 -25.333 26 -65 26 -119v-339h-60v338c0 47.333 -10.5 82.5 -31.5 105.5s-55.167 34.5 -102.5 34.5
c-35.333 0 -65.666 -9.66699 -90.999 -29s-43 -43.333 -53 -72c-8.66699 -24 -13 -56.667 -13 -98z" />
    <glyph glyph-name="o" unicode="o" 
d="M278 -14c-70 1.33301 -127.5 25.501 -172.5 72.501s-67.5 113.833 -67.5 200.5c0 79.333 20.833 144.666 62.5 195.999s100.834 77 177.501 77c78 0 137.5 -25.5 178.5 -76.5s61.5 -116.5 61.5 -196.5c0 -82 -21.833 -148 -65.5 -198s-101.834 -75 -174.501 -75z
M454 259.001c-0.666992 66 -15.167 119.001 -43.5 159.001s-72.5 60 -132.5 60c-58.667 0 -102.667 -21 -132 -63s-44 -94 -44 -156c0 -66 15.333 -119 46 -159s74 -60 130 -60c58.667 0 102.667 21.167 132 63.5s44 94.166 44 155.499z" />
    <glyph glyph-name="p" unicode="p" horiz-adv-x="611" 
d="M139 257c0 -60.667 16.001 -112 48.001 -154s74.333 -63 127 -63c59.333 0 104.333 22.167 135 66.5s44.667 100.5 42 168.5c-0.666992 63.333 -17.334 113 -50.001 149s-75 54 -127 54c-54.667 0 -97.5 -20.667 -128.5 -62s-46.5 -94.333 -46.5 -159zM139.001 83
l0.00292969 -287.001h-60v722h60v-91h2c16.667 32.667 42.167 58.334 76.5 77.001s68.833 28 103.5 28c79.333 0 138.166 -24.833 176.499 -74.5s57.5 -115.5 57.5 -197.5c0 -78 -19.833 -143.167 -59.5 -195.5s-96.834 -78.5 -171.501 -78.5
c-37.333 0 -72.833 8.5 -106.5 25.5s-59.834 40.833 -78.501 71.5z" />
    <glyph glyph-name="q" unicode="q" horiz-adv-x="611" 
d="M472 261c0 60.667 -16.001 112 -48.001 154s-74.333 63 -127 63c-59.333 0 -104.333 -22.167 -135 -66.5s-44.667 -100.5 -42 -168.5c0.666992 -63.333 17.334 -113 50.001 -149s75 -54 127 -54c54.667 0 97.5 20.667 128.5 62s46.5 94.333 46.5 159zM471.999 427
l0.00292969 91.001h60v-722h-60v287c-18.667 -30.667 -44.834 -54.5 -78.501 -71.5s-69.167 -25.5 -106.5 -25.5c-74.667 0 -131.834 26.167 -171.501 78.5s-59.5 117.5 -59.5 195.5c0 82 19.167 147.833 57.5 197.5s97.166 74.5 176.499 74.5
c34.667 0 69.167 -9.33301 103.5 -28s59.833 -44.334 76.5 -77.001h2z" />
    <glyph glyph-name="r" unicode="r" horiz-adv-x="333" 
d="M135 254v-254.001h-60v518h60v-97h2c16 40.667 37 69.334 63 86.001s61.333 25 106 25v-65c-114 2.66699 -171 -68.333 -171 -213z" />
    <glyph glyph-name="s" unicode="s" horiz-adv-x="500" 
d="M46 162l61.0029 -0.000976562c9.33301 -44 26.166 -75.333 50.499 -94s59.166 -28 104.499 -28c41.333 0 73 9.33301 95 28s33 41.334 33 68.001c0 27.333 -11.333 48.333 -34 63s-50.334 25 -83.001 31s-65.334 13 -98.001 21s-60.334 22.833 -83.001 44.5
s-34 51.167 -34 88.5c0 44 16.167 79.667 48.5 107s76.833 41 133.5 41c119.333 0 186 -54.333 200 -163h-61c-10 72.667 -56.667 109 -140 109c-37.333 0 -66.166 -8 -86.499 -24s-30.5 -37.667 -30.5 -65c0 -22 8.16699 -40 24.5 -54s36.833 -23.833 61.5 -29.5
s51.334 -12.5 80.001 -20.5s55.334 -16.5 80.001 -25.5s45.167 -23.833 61.5 -44.5s24.5 -46.667 24.5 -78c0 -48 -19.333 -85.167 -58 -111.5s-89.667 -39.5 -153 -39.5c-59.333 0 -106.333 16.667 -141 50s-53.334 75.333 -56.001 126z" />
    <glyph glyph-name="t" unicode="t" horiz-adv-x="278" 
d="M254 47v-49c-37.333 -8 -60.333 -12 -69 -12c-30.667 0 -53.667 7.83301 -69 23.5s-23 42.167 -23 79.5v379h-73v50h73v144h60v-144h97v-50h-97v-355c0 -28.667 2.83301 -48 8.5 -58s20.167 -15 43.5 -15c14 0 30.333 2.33301 49 7z" />
    <glyph glyph-name="u" unicode="u" 
d="M423 236l-0.000976562 281.999h60v-518h-60v72c-15.333 -17.333 -28.166 -30.666 -38.499 -39.999s-27.333 -19.333 -51 -30s-49.5 -16 -77.5 -16c-122.667 0 -184 63.667 -184 191v341h60v-340c0 -92 44.333 -138 133 -138c48.667 0 87.167 18.167 115.5 54.5
s42.5 83.5 42.5 141.5z" />
    <glyph glyph-name="v" unicode="v" horiz-adv-x="500" 
d="M215 0l-198 518h65l168 -444l168 444h65l-201 -518h-67z" />
    <glyph glyph-name="w" unicode="w" horiz-adv-x="722" 
d="M396 518l114 -438l136 438h61l-168 -518h-64l-113 435h-2l-115 -435h-72l-158 518h60l134 -442l120 442h67z" />
    <glyph glyph-name="x" unicode="x" horiz-adv-x="500" 
d="M409 0l-157 224l-161 -224h-73l199 268l-183 250h74l143 -206l147 206h76l-187 -250l194 -268h-72z" />
    <glyph glyph-name="y" unicode="y" horiz-adv-x="500" 
d="M68 -197v56c21.333 -4 38 -6 50 -6c20.667 0 37 7.66699 49 23s23 37.833 33 67.5s16.333 47.167 19 52.5l-201 522h67l166 -445l166 445h65l-193 -511l-28 -73c-6.66699 -16.667 -15.5 -35.5 -26.5 -56.5s-21.167 -36.333 -30.5 -46s-20.833 -18 -34.5 -25
s-28.5 -10.5 -44.5 -10.5c-19.333 0 -38.333 2.33301 -57 7z" />
    <glyph glyph-name="z" unicode="z" horiz-adv-x="500" 
d="M467 0h-434v53l344 415h-321v50h398v-53l-344 -415h357v-50z" />
    <glyph glyph-name="braceleft" unicode="{" horiz-adv-x="333" 
d="M127 395v182c0 60.667 10.167 103 30.5 127s58.5 35 114.5 33c-54 -18.667 -81 -59 -81 -121v-192c0 -43.333 -5.5 -76.833 -16.5 -100.5s-32.833 -39.834 -65.5 -48.501v-2c31.333 -7.33301 52.833 -21.666 64.5 -42.999s17.5 -52 17.5 -92v-206
c0 -34 6.83301 -60.5 20.5 -79.5s36.167 -32.833 67.5 -41.5v-2c-57.333 -0.666992 -97 10 -119 32s-33 59.333 -33 112v204c0 33.333 -5.66699 59.5 -17 78.5s-33 31.5 -65 37.5v2c34.667 10 57 23.5 67 40.5s15 43.5 15 79.5z" />
    <glyph glyph-name="bar" unicode="|" horiz-adv-x="222" 
d="M81 750h60v-1000h-60v1000z" />
    <glyph glyph-name="braceright" unicode="}" horiz-adv-x="333" 
d="M203 599v-204c0 -33.333 5.66699 -59.5 17 -78.5s33 -31.5 65 -37.5v-2c-34.667 -10 -57 -23.5 -67 -40.5s-15 -43.5 -15 -79.5v-182c0 -60.667 -10.167 -103 -30.5 -127s-58.5 -35 -114.5 -33c54 18.667 81 59 81 121v192c0 43.333 5.5 76.833 16.5 100.5
s32.833 39.834 65.5 48.501v2c-31.333 7.33301 -52.833 21.666 -64.5 42.999s-17.5 52 -17.5 92v206c0 34 -6.83301 60.5 -20.5 79.5s-36.167 32.833 -67.5 41.5v2c57.333 0.666992 97 -10 119 -32s33 -59.333 33 -112z" />
    <glyph glyph-name="asciitilde" unicode="~" horiz-adv-x="660" 
d="M221 324c26 0 64.999 -12 116.999 -36c53.333 -24 87.666 -36 102.999 -36c35.333 0 68.333 29 99 87l40 -34c-38 -72.667 -84.667 -109 -140 -109c-22 0 -67 14 -135 42c-3.33301 1.33301 -11.5 5.16602 -24.5 11.499s-24 11 -33 14s-17.833 4.5 -26.5 4.5
c-12.667 0 -24.5 -2.66699 -35.5 -8s-21.167 -13.833 -30.5 -25.5s-16.666 -21.167 -21.999 -28.5s-12 -18 -20 -32l-33 47c13.333 20 24.833 35.833 34.5 47.5s24.334 23.834 44.001 36.501s40.5 19 62.5 19z" />
    <glyph glyph-name="uni00A0" unicode="&#xa0;" horiz-adv-x="278" 
 />
    <glyph glyph-name="exclamdown" unicode="&#xa1;" horiz-adv-x="333" 
d="M144 352h45l14 -315v-224h-73v224zM203 445h-73v87h73v-87z" />
    <glyph glyph-name="cent" unicode="&#xa2;" 
d="M191 68l133 404.999c-10.667 3.33301 -24.334 5 -41.001 5c-57.333 0 -100.666 -21.667 -129.999 -65s-44 -95 -44 -155c0 -40.667 6.83301 -78.167 20.5 -112.5s34.167 -60.166 61.5 -77.499zM367 455.999l-134.998 -408.999c18.667 -4.66699 35.667 -7 51 -7
c44 0 79.667 12.333 107 37s44.666 58.667 51.999 102h64c-8 -54.667 -31.5 -100.5 -70.5 -137.5s-89.833 -55.5 -152.5 -55.5c-22.667 0 -45.334 2.66699 -68.001 8l-45 -135h-47l49 150c-42 20.667 -73.667 52.667 -95 96s-32 94.333 -32 153
c0 86 22.167 153.167 66.5 201.5s101.5 72.5 171.5 72.5c19.333 0 39 -1.66699 59 -5l40 120h48l-44 -134c62.667 -26.667 100 -79.334 112 -158.001h-61c-12 46 -35.333 79.667 -70 101z" />
    <glyph glyph-name="sterling" unicode="&#xa3;" 
d="M184 365l166.002 -0.00195312v-42h-151c7.33301 -26 11 -48.667 11 -68c0 -60 -32 -122.667 -96 -188l2 -2c34.667 18 64.334 27 89.001 27c33.333 0 66.666 -7 99.999 -21s61 -21 83 -21c21.333 0 39.833 4.83301 55.5 14.5s33.167 23.834 52.5 42.501l34 -51
c-30 -27.333 -56.667 -45.833 -80 -55.5s-54.666 -14.5 -93.999 -14.5c-14 0 -40.333 7.33301 -79 22s-71.334 22 -98.001 22c-21.333 0 -56.333 -11 -105 -33l-35 58c70.667 51.333 106 111.333 106 180c0 30.667 -7 60 -21 88h-99v42h81
c-0.666992 1.33301 -7 12.833 -19 34.5s-20.667 41.5 -26 59.5s-8 39 -8 63c0 54.667 19.333 98.834 58 132.501s93.667 50.5 165 50.5c67.333 0 122.166 -19.667 164.499 -59s63.166 -92 62.499 -158h-66c-2 52 -17.167 92.167 -45.5 120.5s-66.5 42.5 -114.5 42.5
c-43.333 0 -80.833 -11.5 -112.5 -34.5s-47.5 -55.5 -47.5 -97.5c0 -18 3 -35 9 -51s16.167 -35.333 30.5 -58s23.5 -37.667 27.5 -45z" />
    <glyph glyph-name="currency" unicode="&#xa4;" 
d="M32 110l43 42.002c-32 47.333 -48 96.666 -48 147.999c0 55.333 16 105.666 48 150.999l-43 43l52 53l44 -43c43.333 32.667 94.666 49 153.999 49c50 0 98.667 -16.333 146 -49l44 43l52 -53l-43 -43c32 -46 48 -98 48 -156c0 -48 -16 -95.667 -48 -143l43 -42l-52 -53
l-44 43c-45.333 -33.333 -97 -50 -155 -50c-49.333 0 -97.666 16.667 -144.999 50l-44 -43zM282 481.002c-52 1.33301 -95.667 -15.5 -131 -50.5s-52.666 -78.5 -51.999 -130.5c-0.666992 -48 16.666 -89.833 51.999 -125.5s77 -53.5 125 -53.5c50 0 92.833 17.667 128.5 53
s53.5 78.333 53.5 129c0 48 -17.333 89.833 -52 125.5s-76 53.167 -124 52.5z" />
    <glyph glyph-name="yen" unicode="&#xa5;" 
d="M80 720l197 -347l202 347h73l-171 -286h111v-54h-144l-38 -66v-42h182v-54h-182v-218h-64v218h-182v54h182v42l-38 66h-144v54h111l-171 286h76z" />
    <glyph glyph-name="brokenbar" unicode="&#xa6;" horiz-adv-x="222" 
d="M81 675h60v-350h-60v350zM81 175h60v-350h-60v350z" />
    <glyph glyph-name="section" unicode="&#xa7;" 
d="M363 341l-173 106.001c-58.667 -24.667 -88 -59.334 -88 -104.001c0 -22.667 7.66699 -42.5 23 -59.5s36 -34.167 62 -51.5l178 -115c59.333 32.667 89 70.334 89 113.001c0 23.333 -8.33301 43.666 -25 60.999s-38.667 34 -66 50zM281 102.001l-130.996 82.002
c-34 21.333 -59.5 43.666 -76.5 66.999s-25.5 51.333 -25.5 84c0 32 10 60.667 30 86s45.667 44.666 77 57.999c-18 20 -31.333 38.5 -40 55.5s-13 36.833 -13 59.5c0 41.333 16 75.833 48 103.5s76.333 41.5 133 41.5c55.333 0 98.166 -16 128.499 -48
s45.166 -75.667 44.499 -131h-54c-1.33301 42 -11.833 73.333 -31.5 94s-50.5 31 -92.5 31c-33.333 0 -60.333 -8.16699 -81 -24.5s-31 -40.5 -31 -72.5c0 -24.667 11.667 -48.334 35 -71.001s51.833 -43.167 85.5 -61.5l101 -56.5
c33.667 -19.333 62.167 -42.666 85.5 -69.999s35 -57 35 -89c0 -34.667 -9.33301 -63.334 -28 -86.001s-46 -46 -82 -70c38.667 -36 58 -72.667 58 -110c0 -49.333 -16.667 -87.5 -50 -114.5s-75.333 -40.5 -126 -40.5c-56 0 -100.333 16.333 -133 49
s-50.334 77 -53.001 133h61c0 -41.333 10.667 -73 32 -95s52.666 -33 93.999 -33c30 0 56 8.33301 78 25s33 39.667 33 69c0 15.333 -3 29.5 -9 42.5s-16 25.833 -30 38.5s-25 21.834 -33 27.501z" />
    <glyph glyph-name="dieresis" unicode="&#xa8;" horiz-adv-x="333" 
d="M60 584v102h65v-102h-65zM219 584v102h65v-102h-65z" />
    <glyph glyph-name="copyright" unicode="&#xa9;" horiz-adv-x="800" 
d="M401 -19c-104.667 0 -194.167 37.167 -268.5 111.5s-111.5 163.833 -111.5 268.5c0 104 37.167 193 111.5 267s163.833 111 268.5 111s193.834 -37 267.501 -111s110.5 -163 110.5 -267c0 -105.333 -36.833 -195 -110.5 -269s-162.834 -111 -267.501 -111zM401 31
c91.333 0 167.166 31.667 227.499 95s90.5 141.666 90.5 234.999c0 92.667 -30.167 170.5 -90.5 233.5s-136.166 94.5 -227.499 94.5c-92 0 -168.333 -31.5 -229 -94.5s-91 -140.833 -91 -233.5c0 -93.333 30.333 -171.666 91 -234.999s137 -95 229 -95zM539 292
l54.002 0.00195312c-4.66699 -44 -23.834 -79.5 -57.501 -106.5s-72.834 -40.5 -117.501 -40.5c-62.667 0 -113.334 20.667 -152.001 62s-58 93.666 -58 156.999c0 64 18.667 116.167 56 156.5s87.666 60.5 150.999 60.5c46.667 0 86.334 -12.667 119.001 -38
s52.334 -60.333 59.001 -105h-54c-5.33301 29.333 -19.5 53.166 -42.5 71.499s-49.833 27.5 -80.5 27.5c-48 0 -85 -16.333 -111 -49s-39 -73.667 -39 -123c0 -48 13.667 -89.333 41 -124s64.333 -52 111 -52c30.667 0 57.5 9.5 80.5 28.5s36.5 43.833 40.5 74.5z" />
    <glyph glyph-name="ordfeminine" unicode="&#xaa;" horiz-adv-x="334" 
d="M245 534v49c-20 -8 -53.667 -14 -101 -18c-64.667 -4.66699 -97 -26.667 -97 -66c0 -18 7.5 -32.167 22.5 -42.5s32.5 -15.5 52.5 -15.5c34 0 63 8 87 24s36 39 36 69zM125 594l54.0029 7.00098c24 2 41.333 5.33301 52 10c9.33301 3.33301 14 14 14 32
c0 20 -6.83301 36 -20.5 48s-34.834 18 -63.501 18c-59.333 0 -92 -24.333 -98 -73h-40c2.66699 34.667 16.667 60.5 42 77.5s57.666 25.5 96.999 25.5c81.333 0 122 -32.333 122 -97v-169c0 -14 2.66699 -22.833 8 -26.5s16.333 -2.83398 33 2.49902v-28
c-15.333 -5.33301 -31.333 -7 -48 -5c-20 3.33301 -30.667 19 -32 47c-32.667 -34.667 -74.334 -52 -125.001 -52c-31.333 0 -57.833 7.66699 -79.5 23s-32.5 37.333 -32.5 66c0 52.667 39 84 117 94z" />
    <glyph glyph-name="guillemotleft" unicode="&#xab;" 
d="M297 228v63l146 113v-63l-104 -82l104 -80v-62zM113 228v63l146 113v-63l-104 -82l104 -80v-62z" />
    <glyph glyph-name="logicalnot" unicode="&#xac;" horiz-adv-x="660" 
d="M516 112v206h-436v60h500v-266h-64z" />
    <glyph glyph-name="uni00AD" unicode="&#xad;" horiz-adv-x="333" 
d="M40 291h253v-62h-253v62z" />
    <glyph glyph-name="registered" unicode="&#xae;" horiz-adv-x="800" 
d="M401 -19c-104.667 0 -194.167 37.167 -268.5 111.5s-111.5 163.833 -111.5 268.5c0 104 37.167 193 111.5 267s163.833 111 268.5 111s193.834 -37 267.501 -111s110.5 -163 110.5 -267c0 -105.333 -36.833 -195 -110.5 -269s-162.834 -111 -267.501 -111zM401 31
c91.333 0 167.166 31.667 227.499 95s90.5 141.666 90.5 234.999c0 92.667 -30.167 170.5 -90.5 233.5s-136.166 94.5 -227.499 94.5c-92 0 -168.333 -31.5 -229 -94.5s-91 -140.833 -91 -233.5c0 -93.333 30.333 -171.666 91 -234.999s137 -95 229 -95zM462 344
l128 -194.999h-62l-121 195h-95v-195h-52v423h185c54 0 92.5 -9.5 115.5 -28.5s34.5 -46.833 34.5 -83.5c0 -74.667 -44.333 -113.334 -133 -116.001zM312 385.001l79.001 -0.00195312h23h26c4 0 11.833 0.5 23.5 1.5s19.834 2.5 24.501 4.5l19.5 8.5
c8.33301 3.66699 14.166 8.16699 17.499 13.5s6.5 12 9.5 20s4.5 17.333 4.5 28c0 20.667 -5.66699 36.834 -17 48.501s-23.833 18.834 -37.5 21.501s-30.834 4 -51.501 4h-121v-150z" />
    <glyph glyph-name="macron" unicode="&#xaf;" horiz-adv-x="333" 
d="M23 612v45h296v-45h-296z" />
    <glyph glyph-name="degree" unicode="&#xb0;" horiz-adv-x="400" 
d="M350 555c0 -41.333 -14.668 -76.666 -44.001 -105.999s-64.666 -44 -105.999 -44s-76.666 14.667 -105.999 44s-44 64.666 -44 105.999c-0.666992 40.667 13.833 75.834 43.5 105.501s65.167 44.5 106.5 44.5s76.666 -14.833 105.999 -44.5s44 -64.834 44 -105.501z
M309.999 555c0 30 -10.832 55.833 -32.499 77.5s-47.834 32.5 -78.501 32.5c-30 0 -55.833 -10.833 -77.5 -32.5s-32.167 -47.5 -31.5 -77.5c0 -30.667 10.667 -56.667 32 -78s47.333 -32 78 -32c30 0 55.833 10.667 77.5 32s32.5 47.333 32.5 78z" />
    <glyph glyph-name="plusminus" unicode="&#xb1;" horiz-adv-x="660" 
d="M300 330v170h60v-170h220v-60h-220v-170h-60v170h-220v60h220zM80 0v60h500v-60h-500z" />
    <glyph glyph-name="twosuperior" unicode="&#xb2;" horiz-adv-x="333" 
d="M72 600l-44.0029 -0.000976562c0 42 13.5 75.667 40.5 101s63.167 38 108.5 38c44.667 0 79.334 -11 104.001 -33s37 -50 37 -84c0 -26 -7.66699 -49.5 -23 -70.5s-32 -36.667 -50 -47s-40.667 -22.666 -68 -36.999s-46.666 -25.5 -57.999 -33.5
c-38.667 -26.667 -58.667 -55.334 -60 -86.001h255v-32h-299c0 44 11.667 78.333 35 103c20.667 22 45.5 42 74.5 60s53.667 31.833 74 41.5s37.833 23 52.5 40s22 36.833 22 59.5c0 26.667 -9.66699 47.834 -29 63.501s-43.333 23.5 -72 23.5
c-29.333 0 -53.666 -10.5 -72.999 -31.5s-28.333 -46.167 -27 -75.5z" />
    <glyph glyph-name="threesuperior" unicode="&#xb3;" horiz-adv-x="333" 
d="M133 520l-0.00292969 30.998c42.667 0 75.167 5.83301 97.5 17.5s33.5 32.834 33.5 63.501c0 24.667 -9.16699 43.334 -27.5 56.001s-41.5 19 -69.5 19c-29.333 0 -53.166 -8.5 -71.499 -25.5s-27.5 -38.833 -27.5 -65.5h-41c0 38 14.667 69.667 44 95
c22.667 18.667 57.334 28 104.001 28c38 0 69.333 -9 94 -27s37 -43.667 37 -77c0 -45.333 -21.667 -77 -65 -95c54 -15.333 81 -50 81 -104c0 -36 -13.167 -66.167 -39.5 -90.5s-62.5 -36.833 -108.5 -37.5c-54 0 -93.5 9.66699 -118.5 29s-39.833 53 -44.5 101h42
c0 -31.333 10.333 -55.5 31 -72.5s48.334 -25.5 83.001 -25.5c32.667 0 60 9.66699 82 29s32.333 41.333 31 66c-2 62.667 -51 91 -147 85z" />
    <glyph glyph-name="acute" unicode="&#xb4;" horiz-adv-x="333" 
d="M160 574h-51l111 139h77z" />
    <glyph glyph-name="mu" unicode="&#xb5;" 
d="M423 236l-0.000976562 281.999h60v-518h-60v72c-15.333 -17.333 -28.166 -30.666 -38.499 -39.999s-27.333 -19.333 -51 -30s-49.5 -16 -77.5 -16c-48 0 -89.333 10.667 -124 32v-222h-60v722h60v-340c0 -92 44.333 -138 133 -138c48.667 0 87.167 18.167 115.5 54.5
s42.5 83.5 42.5 141.5z" />
    <glyph glyph-name="paragraph" unicode="&#xb6;" horiz-adv-x="650" 
d="M258 -146l-0.000976562 482c-51.333 -0.666992 -96.166 18 -134.499 56s-57.5 82.667 -57.5 134c0 62 19.667 109.833 59 143.5s94 50.5 164 50.5h217v-866h-60v799h-128v-799h-60z" />
    <glyph glyph-name="periodcentered" unicode="&#xb7;" horiz-adv-x="278" 
d="M139 398c12.667 0 23.832 -4.66895 33.499 -14.002s14.5 -20.666 14.5 -33.999s-4.66699 -24.833 -14 -34.5s-20.666 -14.5 -33.999 -14.5s-24.833 4.83301 -34.5 14.5s-14.5 21.167 -14.5 34.5c0 12.667 5 23.834 15 33.501s21.333 14.5 34 14.5z" />
    <glyph glyph-name="cedilla" unicode="&#xb8;" horiz-adv-x="333" 
d="M54 -188l14.998 29.998c30 -10 51.333 -15 64 -15c16.667 0 31.834 4 45.501 12s20.5 19.667 20.5 35c0 12.667 -4.83301 22.334 -14.5 29.001s-21.5 10 -35.5 10c-9.33301 0 -24 -2.66699 -44 -8l-15 13l60 82h39l-47 -59c16 4 28 6 36 6
c20.667 0 38.167 -5.33301 52.5 -16s22.5 -22.667 24.5 -36c6 -33.333 -2 -58.666 -24 -75.999s-50.667 -26 -86 -26c-27.333 0 -57.666 6.33301 -90.999 19z" />
    <glyph glyph-name="onesuperior" unicode="&#xb9;" horiz-adv-x="333" 
d="M205 316l0.000976562 313.998h-118v26c20.667 1.33301 36.667 2.83301 48 4.5s23.166 5.33398 35.499 11.001s21.833 13.834 28.5 24.501s11.667 25 15 43h33v-423h-42z" />
    <glyph glyph-name="ordmasculine" unicode="&#xba;" horiz-adv-x="334" 
d="M167 411c-45.333 1.33301 -82.667 16 -112 44s-44 68 -44 120c0 48 13.5 87.333 40.5 118s65.5 46 115.5 46c50.667 0 89.334 -15.333 116.001 -46s40 -70 40 -118c0 -49.333 -14.333 -89 -43 -119s-66.334 -45 -113.001 -45zM49.999 575
c0 -39.333 10.332 -71.5 30.999 -96.5s49.334 -37.5 86.001 -37.5c38 0 67 13.167 87 39.5s30 57.833 30 94.5c0 39.333 -9.66699 71.5 -29 96.5s-48.666 37.5 -87.999 37.5c-38.667 0 -67.834 -13.167 -87.501 -39.5s-29.5 -57.833 -29.5 -94.5z" />
    <glyph glyph-name="guillemotright" unicode="&#xbb;" 
d="M443 293v-63l-146 -113v63l104 82l-104 80v62zM259 293v-63l-146 -113v63l104 82l-104 80v62z" />
    <glyph glyph-name="onequarter" unicode="&#xbc;" horiz-adv-x="834" 
d="M689 0v104h-209v33l213 282h38v-282h63v-33h-63v-104h-42zM689 361l-168 -224h168v224zM219 -14h-51l444 719h51zM158 316l0.000976562 313.998h-118v26c20.667 1.33301 36.667 2.83301 48 4.5s23.166 5.33398 35.499 11.001s21.833 13.834 28.5 24.501s11.667 25 15 43
h33v-423h-42z" />
    <glyph glyph-name="onehalf" unicode="&#xbd;" horiz-adv-x="834" 
d="M179 -14h-51l444 719h51zM158 316l0.000976562 313.998h-118v26c20.667 1.33301 36.667 2.83301 48 4.5s23.166 5.33398 35.499 11.001s21.833 13.834 28.5 24.501s11.667 25 15 43h33v-423h-42zM548.001 283.998l-44.0029 -0.000976562c0 42 13.5 75.667 40.5 101
s63.167 38 108.5 38c44.667 0 79.334 -11 104.001 -33s37 -50 37 -84c0 -26 -7.66699 -49.5 -23 -70.5s-32 -36.667 -50 -47s-40.667 -22.666 -68 -36.999s-46.666 -25.5 -57.999 -33.5c-38.667 -26.667 -58.667 -55.334 -60 -86.001h255v-32h-299
c0 44 11.667 78.333 35 103c20.667 22 45.5 42 74.5 60s53.667 31.833 74 41.5s37.833 23 52.5 40s22 36.833 22 59.5c0 26.667 -9.66699 47.834 -29 63.501s-43.333 23.5 -72 23.5c-29.333 0 -53.666 -10.5 -72.999 -31.5s-28.333 -46.167 -27 -75.5z" />
    <glyph glyph-name="threequarters" unicode="&#xbe;" horiz-adv-x="834" 
d="M689 361l-168 -224h168v224zM689 0v104h-209v33l213 282h38v-282h63v-33h-63v-104h-42zM162 520l-0.00292969 30.998c42.667 0 75.167 5.83301 97.5 17.5s33.5 32.834 33.5 63.501c0 24.667 -9.16699 43.334 -27.5 56.001s-41.5 19 -69.5 19
c-29.333 0 -53.166 -8.5 -71.499 -25.5s-27.5 -38.833 -27.5 -65.5h-41c0 38 14.667 69.667 44 95c22.667 18.667 57.334 28 104.001 28c38 0 69.333 -9 94 -27s37 -43.667 37 -77c0 -45.333 -21.667 -77 -65 -95c54 -15.333 81 -50 81 -104
c0 -36 -13.167 -66.167 -39.5 -90.5s-62.5 -36.833 -108.5 -37.5c-54 0 -93.5 9.66699 -118.5 29s-39.833 53 -44.5 101h42c0 -31.333 10.333 -55.5 31 -72.5s48.334 -25.5 83.001 -25.5c32.667 0 60 9.66699 82 29s32.333 41.333 31 66c-2 62.667 -51 91 -147 85z
M258.997 -14.002h-51l444 719h51z" />
    <glyph glyph-name="questiondown" unicode="&#xbf;" horiz-adv-x="500" 
d="M401 16l61 -0.00390625c4.66699 -65.333 -13.666 -118.833 -54.999 -160.5s-95 -62.5 -161 -62.5c-67.333 0 -120.5 17 -159.5 51s-58.5 79.667 -58.5 137c0 26.667 6.66699 51.834 20 75.501s28.666 43 45.999 58s37.166 33.333 59.499 55s39.5 42.167 51.5 61.5
c14 22 21 61.667 21 119h58c0.666992 -43.333 -2.33301 -78.833 -9 -106.5s-22 -54.167 -46 -79.5l-44.5 -43c-21 -20 -36.667 -35.667 -47 -47s-20.5 -26.166 -30.5 -44.499s-15 -36.166 -15 -53.499c0 -37.333 14 -68.166 42 -92.499s66 -36.5 114 -36.5
s85.833 16 113.5 48s40.834 72.333 39.501 121zM217 531.996h73v-88h-73v88z" />
    <glyph glyph-name="Agrave" unicode="&#xc0;" horiz-adv-x="667" 
d="M85 0h-70l283 720h77l276 -720h-70l-83 226h-328zM334 662l-141 -378h282zM350 776l-138 139h78l111 -139h-51z" />
    <glyph glyph-name="Aacute" unicode="&#xc1;" horiz-adv-x="667" 
d="M85 0h-70l283 720h77l276 -720h-70l-83 226h-328zM334 662l-141 -378h282zM327 776h-51l111 139h77z" />
    <glyph glyph-name="Acircumflex" unicode="&#xc2;" horiz-adv-x="667" 
d="M85 0h-70l283 720h77l276 -720h-70l-83 226h-328zM334 662l-141 -378h282zM338 878l-82 -102h-65l114 139h67l113 -139h-65z" />
    <glyph glyph-name="Atilde" unicode="&#xc3;" horiz-adv-x="667" 
d="M85 0h-70l283 720h77l276 -720h-70l-83 226h-328zM334 662l-141 -378h282zM219 788l-36 -0.00195312c2 20.667 8.66699 40.334 20 59.001c10 14.667 23 25.334 39 32.001s32.333 8 49 4c10.667 -2 30.667 -9.66699 60 -23s50.333 -20 63 -20
c22.667 0 37.334 16.667 44.001 50h38c-0.666992 -6 -3.33398 -18.667 -8.00098 -38c-17.333 -40 -42 -60 -74 -60c-19.333 0 -44.833 7.5 -76.5 22.5s-54.834 22.5 -69.501 22.5c-13.333 0 -23.666 -4.33301 -30.999 -13s-13.333 -20.667 -18 -36z" />
    <glyph glyph-name="Adieresis" unicode="&#xc4;" horiz-adv-x="667" 
d="M85 0h-70l283 720h77l276 -720h-70l-83 226h-328zM334 662l-141 -378h282zM227 786v102h65v-102h-65zM386 786v102h65v-102h-65z" />
    <glyph glyph-name="Aring" unicode="&#xc5;" horiz-adv-x="667" 
d="M85 0h-70l283 720h77l276 -720h-70l-83 226h-328zM334 662l-141 -378h282zM354 780c-27.333 0 -50.833 9.83105 -70.5 29.498s-29.5 42.834 -29.5 69.501s10 50 30 70s43.333 30 70 30s49.834 -10 69.501 -30s29.5 -43.333 29.5 -70
c0 -27.333 -9.83301 -50.666 -29.5 -69.999s-42.834 -29 -69.501 -29zM354 812.998c17.333 0 32.667 6.66797 46 20.001s20 28.666 20 45.999c0 18 -6.5 33.667 -19.5 47s-28.5 20 -46.5 20s-33.667 -6.66699 -47 -20s-20 -29 -20 -47s6.66699 -33.5 20 -46.5
s29 -19.5 47 -19.5z" />
    <glyph glyph-name="AE" unicode="&#xc6;" horiz-adv-x="1000" 
d="M73 0h-68l313 720h630v-58h-408v-260h371v-58h-371v-286h420v-58h-488v226h-303zM358 662l-161 -378h275v378h-114z" />
    <glyph glyph-name="Ccedilla" unicode="&#xc7;" horiz-adv-x="722" 
d="M662 511l-70.0039 -0.00292969c-13.333 60 -38.666 103.333 -75.999 130s-87.666 40 -150.999 40c-82 0 -144 -30.167 -186 -90.5s-63 -136.5 -63 -228.5c0 -34 2.5 -66 7.5 -96s13.667 -59.167 26 -87.5s28 -52.5 47 -72.5s43.333 -36.167 73 -48.5
s63.5 -18.5 101.5 -18.5c60 0 109.5 18 148.5 54s65.5 84 79.5 144h71c-17.333 -75.333 -50 -136.166 -98 -182.499s-115.333 -70.5 -202 -72.5l-33 -41c16 4 28 6 36 6c20.667 0 38.167 -5.33301 52.5 -16s22.5 -22.667 24.5 -36c6 -33.333 -2 -58.666 -24 -75.999
s-50.667 -26 -86 -26c-27.333 0 -57.666 6.33301 -90.999 19l15 30c30 -10 51.333 -15 64 -15c16.667 0 31.834 4 45.501 12s20.5 19.667 20.5 35c0 12.667 -4.83301 22.334 -14.5 29.001s-21.5 10 -35.5 10c-9.33301 0 -24 -2.66699 -44 -8l-15 13l47 64
c-64.667 4 -119 24.167 -163 60.5s-75.167 81.166 -93.5 134.499s-27.5 114.333 -27.5 183c0 130.667 30.333 226.5 91 287.5s142 91.5 244 91.5c75.333 0 137.833 -19.667 187.5 -59s80.167 -95.666 91.5 -168.999z" />
    <glyph glyph-name="Egrave" unicode="&#xc8;" horiz-adv-x="611" 
d="M570 0h-489v720h479v-58h-411v-260h371v-58h-371v-286h421v-58zM322 776l-138 139h78l111 -139h-51z" />
    <glyph glyph-name="Eacute" unicode="&#xc9;" horiz-adv-x="611" 
d="M570 0h-489v720h479v-58h-411v-260h371v-58h-371v-286h421v-58zM299 776h-51l111 139h77z" />
    <glyph glyph-name="Ecircumflex" unicode="&#xca;" horiz-adv-x="611" 
d="M570 0h-489v720h479v-58h-411v-260h371v-58h-371v-286h421v-58zM310 878l-82 -102h-65l114 139h67l113 -139h-65z" />
    <glyph glyph-name="Edieresis" unicode="&#xcb;" horiz-adv-x="611" 
d="M570 0h-489v720h479v-58h-411v-260h371v-58h-371v-286h421v-58zM199 786v102h65v-102h-65zM358 786v102h65v-102h-65z" />
    <glyph glyph-name="Igrave" unicode="&#xcc;" horiz-adv-x="278" 
d="M173 0h-68v720h68v-720zM156 776l-138 139h78l111 -139h-51z" />
    <glyph glyph-name="Iacute" unicode="&#xcd;" horiz-adv-x="278" 
d="M173 0h-68v720h68v-720zM112 776h-51l111 139h77z" />
    <glyph glyph-name="Icircumflex" unicode="&#xce;" horiz-adv-x="278" 
d="M173 0h-68v720h68v-720zM123 878l-82 -102h-65l114 139h67l113 -139h-65z" />
    <glyph glyph-name="Idieresis" unicode="&#xcf;" horiz-adv-x="278" 
d="M173 0h-68v720h68v-720zM12 786v102h65v-102h-65zM171 786v102h65v-102h-65z" />
    <glyph glyph-name="Eth" unicode="&#xd0;" horiz-adv-x="722" 
d="M149 662l-0.000976562 -250.999h161v-58h-161v-295h163c70.667 0 127 11 169 33c22.667 12 42.334 28.167 59.001 48.5s29.167 43.166 37.5 68.499s14.333 50.5 18 75.5s5.5 50.833 5.5 77.5c0 138.667 -41.333 230 -124 274c-33.333 18 -88.333 27 -165 27h-163z
M80.999 411.001l-0.00195312 309.001h246c48 0 89.333 -3.5 124 -10.5s67.334 -21.5 98.001 -43.5c42.667 -31.333 73.334 -75.333 92.001 -132s28 -114.334 28 -173.001c0 -118.667 -29 -209.667 -87 -273c-52 -58.667 -137 -88 -255 -88h-246v353h-71v58h71z" />
    <glyph glyph-name="Ntilde" unicode="&#xd1;" horiz-adv-x="722" 
d="M563 0l-414 628h-2v-628h-68v720h77l416 -629h2v629h68v-720h-79zM247 788l-36 -0.00195312c2 20.667 8.66699 40.334 20 59.001c10 14.667 23 25.334 39 32.001s32.333 8 49 4c10.667 -2 30.667 -9.66699 60 -23s50.333 -20 63 -20c22.667 0 37.334 16.667 44.001 50h38
c-0.666992 -6 -3.33398 -18.667 -8.00098 -38c-17.333 -40 -42 -60 -74 -60c-19.333 0 -44.833 7.5 -76.5 22.5s-54.834 22.5 -69.501 22.5c-13.333 0 -23.666 -4.33301 -30.999 -13s-13.333 -20.667 -18 -36z" />
    <glyph glyph-name="Ograve" unicode="&#xd2;" horiz-adv-x="778" 
d="M53 359c-0.666992 109.333 28.501 200 87.501 272s140.5 108 244.5 108c108 0 191.5 -35.667 250.5 -107s88.5 -162.333 88.5 -273c0 -108.667 -29.333 -198.834 -88 -270.501s-141.334 -107.5 -248.001 -107.5s-189.167 35.833 -247.5 107.5
s-87.5 161.834 -87.5 270.501zM389.001 39c88 0 154.5 30.5 199.5 91.5s67.5 137.167 67.5 228.5c0 100 -24 178.667 -72 236s-113.667 86 -197 86c-58.667 0 -108.667 -15.5 -150 -46.5s-71 -70.167 -89 -117.5s-27 -100 -27 -158c0 -92 22.5 -168.333 67.5 -229
s111.833 -91 200.5 -91zM406.001 776l-138 139h78l111 -139h-51z" />
    <glyph glyph-name="Oacute" unicode="&#xd3;" horiz-adv-x="778" 
d="M53 359c-0.666992 109.333 28.501 200 87.501 272s140.5 108 244.5 108c108 0 191.5 -35.667 250.5 -107s88.5 -162.333 88.5 -273c0 -108.667 -29.333 -198.834 -88 -270.501s-141.334 -107.5 -248.001 -107.5s-189.167 35.833 -247.5 107.5
s-87.5 161.834 -87.5 270.501zM389.001 39c88 0 154.5 30.5 199.5 91.5s67.5 137.167 67.5 228.5c0 100 -24 178.667 -72 236s-113.667 86 -197 86c-58.667 0 -108.667 -15.5 -150 -46.5s-71 -70.167 -89 -117.5s-27 -100 -27 -158c0 -92 22.5 -168.333 67.5 -229
s111.833 -91 200.5 -91zM383.001 776h-51l111 139h77z" />
    <glyph glyph-name="Ocircumflex" unicode="&#xd4;" horiz-adv-x="778" 
d="M53 359c-0.666992 109.333 28.501 200 87.501 272s140.5 108 244.5 108c108 0 191.5 -35.667 250.5 -107s88.5 -162.333 88.5 -273c0 -108.667 -29.333 -198.834 -88 -270.501s-141.334 -107.5 -248.001 -107.5s-189.167 35.833 -247.5 107.5
s-87.5 161.834 -87.5 270.501zM389.001 39c88 0 154.5 30.5 199.5 91.5s67.5 137.167 67.5 228.5c0 100 -24 178.667 -72 236s-113.667 86 -197 86c-58.667 0 -108.667 -15.5 -150 -46.5s-71 -70.167 -89 -117.5s-27 -100 -27 -158c0 -92 22.5 -168.333 67.5 -229
s111.833 -91 200.5 -91zM394.001 878l-82 -102h-65l114 139h67l113 -139h-65z" />
    <glyph glyph-name="Otilde" unicode="&#xd5;" horiz-adv-x="778" 
d="M53 359c-0.666992 109.333 28.501 200 87.501 272s140.5 108 244.5 108c108 0 191.5 -35.667 250.5 -107s88.5 -162.333 88.5 -273c0 -108.667 -29.333 -198.834 -88 -270.501s-141.334 -107.5 -248.001 -107.5s-189.167 35.833 -247.5 107.5
s-87.5 161.834 -87.5 270.501zM389.001 39c88 0 154.5 30.5 199.5 91.5s67.5 137.167 67.5 228.5c0 100 -24 178.667 -72 236s-113.667 86 -197 86c-58.667 0 -108.667 -15.5 -150 -46.5s-71 -70.167 -89 -117.5s-27 -100 -27 -158c0 -92 22.5 -168.333 67.5 -229
s111.833 -91 200.5 -91zM275.001 788l-36 -0.00195312c2 20.667 8.66699 40.334 20 59.001c10 14.667 23 25.334 39 32.001s32.333 8 49 4c10.667 -2 30.667 -9.66699 60 -23s50.333 -20 63 -20c22.667 0 37.334 16.667 44.001 50h38
c-0.666992 -6 -3.33398 -18.667 -8.00098 -38c-17.333 -40 -42 -60 -74 -60c-19.333 0 -44.833 7.5 -76.5 22.5s-54.834 22.5 -69.501 22.5c-13.333 0 -23.666 -4.33301 -30.999 -13s-13.333 -20.667 -18 -36z" />
    <glyph glyph-name="Odieresis" unicode="&#xd6;" horiz-adv-x="778" 
d="M53 359c-0.666992 109.333 28.501 200 87.501 272s140.5 108 244.5 108c108 0 191.5 -35.667 250.5 -107s88.5 -162.333 88.5 -273c0 -108.667 -29.333 -198.834 -88 -270.501s-141.334 -107.5 -248.001 -107.5s-189.167 35.833 -247.5 107.5
s-87.5 161.834 -87.5 270.501zM389.001 39c88 0 154.5 30.5 199.5 91.5s67.5 137.167 67.5 228.5c0 100 -24 178.667 -72 236s-113.667 86 -197 86c-58.667 0 -108.667 -15.5 -150 -46.5s-71 -70.167 -89 -117.5s-27 -100 -27 -158c0 -92 22.5 -168.333 67.5 -229
s111.833 -91 200.5 -91zM283.001 786v102h65v-102h-65zM442.001 786v102h65v-102h-65z" />
    <glyph glyph-name="multiply" unicode="&#xd7;" horiz-adv-x="660" 
d="M331 216l-211 -210l-37 36l211 211l-211 211l37 36l211 -210l210 210l37 -36l-210 -211l210 -211l-37 -36z" />
    <glyph glyph-name="Oslash" unicode="&#xd8;" horiz-adv-x="778" 
d="M174 147l398.002 457.004c-46.667 51.333 -109.334 77 -188.001 77c-44.667 0 -84.334 -8.83301 -119.001 -26.5s-62.5 -41.834 -83.5 -72.501s-36.833 -64.834 -47.5 -102.501s-16 -77.834 -16 -120.501c0 -84.667 18.667 -155.334 56 -212.001zM604.002 560.004
l-397 -453c45.333 -45.333 105 -68 179 -68c88 0 154.5 30.5 199.5 91.5s67.5 137.167 67.5 228.5c0 78 -16.333 145 -49 201zM614.002 652.004l83 95.001l39 -35l-87 -100c20.667 -23.333 37.834 -57.333 51.501 -102s20.5 -95 20.5 -151
c0 -108.667 -29.333 -198.834 -88 -270.501s-141.334 -107.5 -248.001 -107.5c-88 0 -161 26.333 -219 79l-85 -97l-39 34l89 101c-54 66.667 -81 153.667 -81 261c0 110 29.833 200.833 89.5 272.5s140.5 107.5 242.5 107.5c96 0 173.333 -29 232 -87z" />
    <glyph glyph-name="Ugrave" unicode="&#xd9;" horiz-adv-x="722" 
d="M82 271l0.000976562 449h68v-429c0 -88.667 16.667 -152.834 50 -192.501s87 -59.5 161 -59.5c76 0 130.167 20.333 162.5 61s48.5 104.334 48.5 191.001v429h68v-449c0 -94 -23.5 -165.833 -70.5 -215.5s-116.5 -74.5 -208.5 -74.5c-92.667 0 -162.334 25 -209.001 75
s-70 121.667 -70 215zM378.001 776l-138 139h78l111 -139h-51z" />
    <glyph glyph-name="Uacute" unicode="&#xda;" horiz-adv-x="722" 
d="M82 271l0.000976562 449h68v-429c0 -88.667 16.667 -152.834 50 -192.501s87 -59.5 161 -59.5c76 0 130.167 20.333 162.5 61s48.5 104.334 48.5 191.001v429h68v-449c0 -94 -23.5 -165.833 -70.5 -215.5s-116.5 -74.5 -208.5 -74.5c-92.667 0 -162.334 25 -209.001 75
s-70 121.667 -70 215zM355.001 776h-51l111 139h77z" />
    <glyph glyph-name="Ucircumflex" unicode="&#xdb;" horiz-adv-x="722" 
d="M82 271l0.000976562 449h68v-429c0 -88.667 16.667 -152.834 50 -192.501s87 -59.5 161 -59.5c76 0 130.167 20.333 162.5 61s48.5 104.334 48.5 191.001v429h68v-449c0 -94 -23.5 -165.833 -70.5 -215.5s-116.5 -74.5 -208.5 -74.5c-92.667 0 -162.334 25 -209.001 75
s-70 121.667 -70 215zM366.001 878l-82 -102h-65l114 139h67l113 -139h-65z" />
    <glyph glyph-name="Udieresis" unicode="&#xdc;" horiz-adv-x="722" 
d="M82 271l0.000976562 449h68v-429c0 -88.667 16.667 -152.834 50 -192.501s87 -59.5 161 -59.5c76 0 130.167 20.333 162.5 61s48.5 104.334 48.5 191.001v429h68v-449c0 -94 -23.5 -165.833 -70.5 -215.5s-116.5 -74.5 -208.5 -74.5c-92.667 0 -162.334 25 -209.001 75
s-70 121.667 -70 215zM255.001 786v102h65v-102h-65zM414.001 786v102h65v-102h-65z" />
    <glyph glyph-name="Yacute" unicode="&#xdd;" horiz-adv-x="611" 
d="M90 720l212 -347l217 347h79l-261 -406v-314h-68v309l-257 411h78zM299 776h-51l111 139h77z" />
    <glyph glyph-name="Thorn" unicode="&#xde;" horiz-adv-x="611" 
d="M146 0l-67.9961 -0.000976562v720h68v-150h195c156.667 0 235 -67 235 -201c0 -31.333 -5.33301 -59 -16 -83s-24.834 -43.167 -42.501 -57.5s-38.834 -26.166 -63.501 -35.499s-49.334 -15.833 -74.001 -19.5s-51.334 -5.5 -80.001 -5.5h-154v-168zM146.004 225.999h156
c69.333 0 121 10.333 155 31s51 59.667 51 117c0 92 -62 138 -186 138h-176v-286z" />
    <glyph glyph-name="germandbls" unicode="&#xdf;" horiz-adv-x="500" 
d="M211 375l0.000976562 49.999c104.667 2.66699 157 44 157 124c0 40 -10.333 71.833 -31 95.5s-52.334 35.5 -95.001 35.5c-54 0 -89.167 -11.833 -105.5 -35.5s-24.5 -60.834 -24.5 -111.501v-533h-60v544c0 126.667 62.333 190 187 190c58 0 104.667 -16.667 140 -50
s53 -78.666 53 -135.999c0 -56 -28 -104.333 -84 -145c36 -12.667 63.5 -35.667 82.5 -69s28.5 -70 28.5 -110c0 -76.667 -18.5 -135.5 -55.5 -176.5s-88.833 -61.5 -155.5 -61.5c-14.667 0 -27 1.66699 -37 5v53c51.333 -9.33301 94.833 -0.166016 130.5 27.501
s53.5 70.167 53.5 127.5c0 62.667 -14.667 107.667 -44 135s-76 41 -140 41z" />
    <glyph glyph-name="agrave" unicode="&#xe0;" 
d="M411 191v81c-34 -14 -85.667 -23.667 -155 -29c-97.333 -7.33301 -146 -44 -146 -110c0 -30 11 -53 33 -69s48.333 -24 79 -24c52 0 96.5 12.833 133.5 38.5s55.5 63.167 55.5 112.5zM227 291l82.998 11c34.667 3.33301 61 9 79 17c14.667 6.66699 22 24.667 22 54
c0 70 -43 105 -129 105c-44.667 0 -79.667 -8.83301 -105 -26.5s-40.666 -47.834 -45.999 -90.501h-61c4 58 25.333 101 64 129s88.334 42 149.001 42c57.333 0 103 -12.667 137 -38s51 -66.333 51 -123v-282c0 -24 4.16699 -38.833 12.5 -44.5s25.166 -4.16699 50.499 4.5
v-47c-20 -6.66699 -35.667 -10 -47 -10c-8.66699 0 -17.667 1 -27 3c-30.667 4.66699 -46.667 30.334 -48 77.001c-51.333 -57.333 -115.666 -86 -192.999 -86c-48.667 0 -89.667 13 -123 39s-50 62.667 -50 110c0 88 60.333 140 181 156zM294.998 574l-138 139h78l111 -139
h-51z" />
    <glyph glyph-name="aacute" unicode="&#xe1;" 
d="M411 191v81c-34 -14 -85.667 -23.667 -155 -29c-97.333 -7.33301 -146 -44 -146 -110c0 -30 11 -53 33 -69s48.333 -24 79 -24c52 0 96.5 12.833 133.5 38.5s55.5 63.167 55.5 112.5zM227 291l82.998 11c34.667 3.33301 61 9 79 17c14.667 6.66699 22 24.667 22 54
c0 70 -43 105 -129 105c-44.667 0 -79.667 -8.83301 -105 -26.5s-40.666 -47.834 -45.999 -90.501h-61c4 58 25.333 101 64 129s88.334 42 149.001 42c57.333 0 103 -12.667 137 -38s51 -66.333 51 -123v-282c0 -24 4.16699 -38.833 12.5 -44.5s25.166 -4.16699 50.499 4.5
v-47c-20 -6.66699 -35.667 -10 -47 -10c-8.66699 0 -17.667 1 -27 3c-30.667 4.66699 -46.667 30.334 -48 77.001c-51.333 -57.333 -115.666 -86 -192.999 -86c-48.667 0 -89.667 13 -123 39s-50 62.667 -50 110c0 88 60.333 140 181 156zM271.998 574h-51l111 139h77z" />
    <glyph glyph-name="acircumflex" unicode="&#xe2;" 
d="M411 191v81c-34 -14 -85.667 -23.667 -155 -29c-97.333 -7.33301 -146 -44 -146 -110c0 -30 11 -53 33 -69s48.333 -24 79 -24c52 0 96.5 12.833 133.5 38.5s55.5 63.167 55.5 112.5zM227 291l82.998 11c34.667 3.33301 61 9 79 17c14.667 6.66699 22 24.667 22 54
c0 70 -43 105 -129 105c-44.667 0 -79.667 -8.83301 -105 -26.5s-40.666 -47.834 -45.999 -90.501h-61c4 58 25.333 101 64 129s88.334 42 149.001 42c57.333 0 103 -12.667 137 -38s51 -66.333 51 -123v-282c0 -24 4.16699 -38.833 12.5 -44.5s25.166 -4.16699 50.499 4.5
v-47c-20 -6.66699 -35.667 -10 -47 -10c-8.66699 0 -17.667 1 -27 3c-30.667 4.66699 -46.667 30.334 -48 77.001c-51.333 -57.333 -115.666 -86 -192.999 -86c-48.667 0 -89.667 13 -123 39s-50 62.667 -50 110c0 88 60.333 140 181 156zM282.998 676l-82 -102h-65l114 139
h67l113 -139h-65z" />
    <glyph glyph-name="atilde" unicode="&#xe3;" 
d="M411 191v81c-34 -14 -85.667 -23.667 -155 -29c-97.333 -7.33301 -146 -44 -146 -110c0 -30 11 -53 33 -69s48.333 -24 79 -24c52 0 96.5 12.833 133.5 38.5s55.5 63.167 55.5 112.5zM227 291l82.998 11c34.667 3.33301 61 9 79 17c14.667 6.66699 22 24.667 22 54
c0 70 -43 105 -129 105c-44.667 0 -79.667 -8.83301 -105 -26.5s-40.666 -47.834 -45.999 -90.501h-61c4 58 25.333 101 64 129s88.334 42 149.001 42c57.333 0 103 -12.667 137 -38s51 -66.333 51 -123v-282c0 -24 4.16699 -38.833 12.5 -44.5s25.166 -4.16699 50.499 4.5
v-47c-20 -6.66699 -35.667 -10 -47 -10c-8.66699 0 -17.667 1 -27 3c-30.667 4.66699 -46.667 30.334 -48 77.001c-51.333 -57.333 -115.666 -86 -192.999 -86c-48.667 0 -89.667 13 -123 39s-50 62.667 -50 110c0 88 60.333 140 181 156zM163.998 586l-36 -0.00195312
c2 20.667 8.66699 40.334 20 59.001c10 14.667 23 25.334 39 32.001s32.333 8 49 4c10.667 -2 30.667 -9.66699 60 -23s50.333 -20 63 -20c22.667 0 37.334 16.667 44.001 50h38c-0.666992 -6 -3.33398 -18.667 -8.00098 -38c-17.333 -40 -42 -60 -74 -60
c-19.333 0 -44.833 7.5 -76.5 22.5s-54.834 22.5 -69.501 22.5c-13.333 0 -23.666 -4.33301 -30.999 -13s-13.333 -20.667 -18 -36z" />
    <glyph glyph-name="adieresis" unicode="&#xe4;" 
d="M411 191v81c-34 -14 -85.667 -23.667 -155 -29c-97.333 -7.33301 -146 -44 -146 -110c0 -30 11 -53 33 -69s48.333 -24 79 -24c52 0 96.5 12.833 133.5 38.5s55.5 63.167 55.5 112.5zM227 291l82.998 11c34.667 3.33301 61 9 79 17c14.667 6.66699 22 24.667 22 54
c0 70 -43 105 -129 105c-44.667 0 -79.667 -8.83301 -105 -26.5s-40.666 -47.834 -45.999 -90.501h-61c4 58 25.333 101 64 129s88.334 42 149.001 42c57.333 0 103 -12.667 137 -38s51 -66.333 51 -123v-282c0 -24 4.16699 -38.833 12.5 -44.5s25.166 -4.16699 50.499 4.5
v-47c-20 -6.66699 -35.667 -10 -47 -10c-8.66699 0 -17.667 1 -27 3c-30.667 4.66699 -46.667 30.334 -48 77.001c-51.333 -57.333 -115.666 -86 -192.999 -86c-48.667 0 -89.667 13 -123 39s-50 62.667 -50 110c0 88 60.333 140 181 156zM171.998 584v102h65v-102h-65z
M330.998 584v102h65v-102h-65z" />
    <glyph glyph-name="aring" unicode="&#xe5;" 
d="M411 191v81c-34 -14 -85.667 -23.667 -155 -29c-97.333 -7.33301 -146 -44 -146 -110c0 -30 11 -53 33 -69s48.333 -24 79 -24c52 0 96.5 12.833 133.5 38.5s55.5 63.167 55.5 112.5zM227 291l82.998 11c34.667 3.33301 61 9 79 17c14.667 6.66699 22 24.667 22 54
c0 70 -43 105 -129 105c-44.667 0 -79.667 -8.83301 -105 -26.5s-40.666 -47.834 -45.999 -90.501h-61c4 58 25.333 101 64 129s88.334 42 149.001 42c57.333 0 103 -12.667 137 -38s51 -66.333 51 -123v-282c0 -24 4.16699 -38.833 12.5 -44.5s25.166 -4.16699 50.499 4.5
v-47c-20 -6.66699 -35.667 -10 -47 -10c-8.66699 0 -17.667 1 -27 3c-30.667 4.66699 -46.667 30.334 -48 77.001c-51.333 -57.333 -115.666 -86 -192.999 -86c-48.667 0 -89.667 13 -123 39s-50 62.667 -50 110c0 88 60.333 140 181 156zM278.998 578
c-27.333 0 -50.835 9.83105 -70.502 29.498s-29.5 42.834 -29.5 69.501s10 50 30 70s43.333 30 70 30s49.834 -10 69.501 -30s29.5 -43.333 29.5 -70c0 -27.333 -9.66699 -50.666 -29 -69.999s-42.666 -29 -69.999 -29zM278.996 610.998c17.333 0 32.667 6.66797 46 20.001
s20 28.666 20 45.999c0 18 -6.5 33.667 -19.5 47s-28.5 20 -46.5 20s-33.667 -6.66699 -47 -20s-20 -29 -20 -47s6.66699 -33.5 20 -46.5s29 -19.5 47 -19.5z" />
    <glyph glyph-name="ae" unicode="&#xe6;" horiz-adv-x="889" 
d="M393 204v70c-19.333 -10 -47.333 -17.833 -84 -23.5s-69.167 -10 -97.5 -13s-53.5 -12.333 -75.5 -28s-33 -38.5 -33 -68.5c0 -32.667 9.5 -57.667 28.5 -75s45.5 -26 79.5 -26c58.667 0 103.667 14.833 135 44.5s47 69.5 47 119.5zM457 295h326
c0 52 -13.833 95.5 -41.5 130.5s-66.5 52.5 -116.5 52.5c-30 0 -56.333 -6 -79 -18s-40.167 -27.5 -52.5 -46.5s-21.5 -38.5 -27.5 -58.5s-9 -40 -9 -60zM219 295l57.0039 6.00098c50 5.33301 82 12 96 20s21 22.667 21 44c0 43.333 -9.33301 73 -28 89
s-51.334 24 -98.001 24c-86.667 0 -134.667 -38 -144 -114h-62c3.33301 56 23.666 98 60.999 126s85 42 143 42c96.667 0 157 -28.333 181 -85c21.333 32 46.333 54.167 75 66.5s64 18.5 106 18.5s77.667 -7.33301 107 -22s52 -35.5 68 -62.5s27.5 -57 34.5 -90
s10.5 -70.5 10.5 -112.5h-390c0 -60.667 14.167 -110 42.5 -148s71.5 -57 129.5 -57c38.667 0 71 10.5 97 31.5s44 50.5 54 88.5h63c-13.333 -56 -38.666 -99 -75.999 -129s-85 -45 -143 -45c-87.333 0 -154 38 -200 114c-16.667 -22.667 -31.834 -40.834 -45.501 -54.501
s-35.834 -27 -66.501 -40s-66 -19.5 -106 -19.5c-49.333 0 -89.5 12.333 -120.5 37s-46.5 61 -46.5 109c0 46 15.167 83 45.5 111s75.166 45.333 134.499 52z" />
    <glyph glyph-name="ccedilla" unicode="&#xe7;" 
d="M500 355l-61 -0.00292969c-22.667 82 -74 123 -154 123c-57.333 0 -100.666 -21.667 -129.999 -65s-44 -95 -44 -155c0 -60.667 14.5 -112.167 43.5 -154.5s72.5 -63.5 130.5 -63.5c44 0 79.667 12.333 107 37s44.666 58.667 51.999 102h64
c-10.667 -58.667 -34.334 -105.167 -71.001 -139.5s-85.667 -52.166 -147 -53.499l-36 -45c16 4 28 6 36 6c20.667 0 38.167 -5.33301 52.5 -16s22.5 -22.667 24.5 -36c6 -33.333 -2 -58.666 -24 -75.999s-50.667 -26 -86 -26c-27.333 0 -57.666 6.33301 -90.999 19l15 30
c30 -10 51.333 -15 64 -15c16.667 0 31.834 4 45.501 12s20.5 19.667 20.5 35c0 12.667 -4.83301 22.334 -14.5 29.001s-21.5 10 -35.5 10c-9.33301 0 -24 -2.66699 -44 -8l-15 13l52 71c-68.667 6 -120.334 33.5 -155.001 82.5s-52 111.167 -52 186.5
c0 76 21.167 140.667 63.5 194s100.5 80 174.5 80c125.333 0 197 -59 215 -177z" />
    <glyph glyph-name="egrave" unicode="&#xe8;" 
d="M109 295h338.001c0 52.667 -14.333 96.334 -43 131.001s-69 52 -121 52c-50 0 -89.833 -17.333 -119.5 -52s-47.834 -78.334 -54.501 -131.001zM511.001 245h-401.998c-0.666992 -58.667 14.333 -107.5 45 -146.5s73.667 -58.5 129 -58.5
c39.333 0 73.166 10.5 101.499 31.5s46.833 50.167 55.5 87.5h67c-35.333 -115.333 -110 -173 -224 -173c-79.333 0 -138.833 24.833 -178.5 74.5s-59.5 115.167 -59.5 196.5c0 78 21.667 143.333 65 196s101 79 173 79s128.167 -24.833 168.5 -74.5
s60.166 -120.5 59.499 -212.5zM295.003 574l-138 139h78l111 -139h-51z" />
    <glyph glyph-name="eacute" unicode="&#xe9;" 
d="M109 295h338.001c0 52.667 -14.333 96.334 -43 131.001s-69 52 -121 52c-50 0 -89.833 -17.333 -119.5 -52s-47.834 -78.334 -54.501 -131.001zM511.001 245h-401.998c-0.666992 -58.667 14.333 -107.5 45 -146.5s73.667 -58.5 129 -58.5
c39.333 0 73.166 10.5 101.499 31.5s46.833 50.167 55.5 87.5h67c-35.333 -115.333 -110 -173 -224 -173c-79.333 0 -138.833 24.833 -178.5 74.5s-59.5 115.167 -59.5 196.5c0 78 21.667 143.333 65 196s101 79 173 79s128.167 -24.833 168.5 -74.5
s60.166 -120.5 59.499 -212.5zM272.003 574h-51l111 139h77z" />
    <glyph glyph-name="ecircumflex" unicode="&#xea;" 
d="M109 295h338.001c0 52.667 -14.333 96.334 -43 131.001s-69 52 -121 52c-50 0 -89.833 -17.333 -119.5 -52s-47.834 -78.334 -54.501 -131.001zM511.001 245h-401.998c-0.666992 -58.667 14.333 -107.5 45 -146.5s73.667 -58.5 129 -58.5
c39.333 0 73.166 10.5 101.499 31.5s46.833 50.167 55.5 87.5h67c-35.333 -115.333 -110 -173 -224 -173c-79.333 0 -138.833 24.833 -178.5 74.5s-59.5 115.167 -59.5 196.5c0 78 21.667 143.333 65 196s101 79 173 79s128.167 -24.833 168.5 -74.5
s60.166 -120.5 59.499 -212.5zM283.003 676l-82 -102h-65l114 139h67l113 -139h-65z" />
    <glyph glyph-name="edieresis" unicode="&#xeb;" 
d="M109 295h338.001c0 52.667 -14.333 96.334 -43 131.001s-69 52 -121 52c-50 0 -89.833 -17.333 -119.5 -52s-47.834 -78.334 -54.501 -131.001zM511.001 245h-401.998c-0.666992 -58.667 14.333 -107.5 45 -146.5s73.667 -58.5 129 -58.5
c39.333 0 73.166 10.5 101.499 31.5s46.833 50.167 55.5 87.5h67c-35.333 -115.333 -110 -173 -224 -173c-79.333 0 -138.833 24.833 -178.5 74.5s-59.5 115.167 -59.5 196.5c0 78 21.667 143.333 65 196s101 79 173 79s128.167 -24.833 168.5 -74.5
s60.166 -120.5 59.499 -212.5zM172.003 584v102h65v-102h-65zM331.003 584v102h65v-102h-65z" />
    <glyph glyph-name="igrave" unicode="&#xec;" horiz-adv-x="222" 
d="M138 0h-60v518h60v-518zM128 574l-138 139h78l111 -139h-51z" />
    <glyph glyph-name="iacute" unicode="&#xed;" horiz-adv-x="222" 
d="M138 0h-60v518h60v-518zM84 574h-51l111 139h77z" />
    <glyph glyph-name="icircumflex" unicode="&#xee;" horiz-adv-x="222" 
d="M138 0h-60v518h60v-518zM95 676l-82 -102h-65l114 139h67l113 -139h-65z" />
    <glyph glyph-name="idieresis" unicode="&#xef;" horiz-adv-x="222" 
d="M138 0h-60v518h60v-518zM-16 584v102h65v-102h-65zM143 584v102h65v-102h-65z" />
    <glyph glyph-name="eth" unicode="&#xf0;" 
d="M454 259c-0.666992 66 -15.167 119.001 -43.5 159.001s-72.5 60 -132.5 60c-58.667 0 -102.667 -21 -132 -63s-44 -94 -44 -156c0 -66 15.333 -119 46 -159s74 -60 130 -60c58.667 0 102.667 21.167 132 63.5s44 94.166 44 155.499zM329 635.001l-60.999 -49l-38 24
l65 52c-21.333 14.667 -48 29.334 -80 44.001l41 33c30 -12.667 56.333 -27.667 79 -45l55 45l37 -25l-59 -48c47.333 -44.667 84.166 -102 110.499 -172s39.5 -148.333 39.5 -235c0 -82 -21.833 -148 -65.5 -198s-101.834 -75 -174.501 -75
c-70 1.33301 -127.5 25.5 -172.5 72.5s-67.5 113.833 -67.5 200.5c0 75.333 20 139.666 60 192.999s98.667 80 176 80c34 0 61 -3 81 -9s41.667 -18.333 65 -37c-23.333 66 -53.666 115.667 -90.999 149z" />
    <glyph glyph-name="ntilde" unicode="&#xf1;" 
d="M132 279l-0.00195312 -279h-60v518h60v-72c26.667 28.667 52.834 50.167 78.501 64.5s55.167 21.5 88.5 21.5c71.333 0 124 -24.667 158 -74c17.333 -25.333 26 -65 26 -119v-339h-60v338c0 47.333 -10.5 82.5 -31.5 105.5s-55.167 34.5 -102.5 34.5
c-35.333 0 -65.666 -9.66699 -90.999 -29s-43 -43.333 -53 -72c-8.66699 -24 -13 -56.667 -13 -98zM163.998 586l-36 -0.00195312c2 20.667 8.66699 40.334 20 59.001c10 14.667 23 25.334 39 32.001s32.333 8 49 4c10.667 -2 30.667 -9.66699 60 -23s50.333 -20 63 -20
c22.667 0 37.334 16.667 44.001 50h38c-0.666992 -6 -3.33398 -18.667 -8.00098 -38c-17.333 -40 -42 -60 -74 -60c-19.333 0 -44.833 7.5 -76.5 22.5s-54.834 22.5 -69.501 22.5c-13.333 0 -23.666 -4.33301 -30.999 -13s-13.333 -20.667 -18 -36z" />
    <glyph glyph-name="ograve" unicode="&#xf2;" 
d="M278 -14c-70 1.33301 -127.5 25.501 -172.5 72.501s-67.5 113.833 -67.5 200.5c0 79.333 20.833 144.666 62.5 195.999s100.834 77 177.501 77c78 0 137.5 -25.5 178.5 -76.5s61.5 -116.5 61.5 -196.5c0 -82 -21.833 -148 -65.5 -198s-101.834 -75 -174.501 -75z
M454 259.001c-0.666992 66 -15.167 119.001 -43.5 159.001s-72.5 60 -132.5 60c-58.667 0 -102.667 -21 -132 -63s-44 -94 -44 -156c0 -66 15.333 -119 46 -159s74 -60 130 -60c58.667 0 102.667 21.167 132 63.5s44 94.166 44 155.499zM295 574.002l-138 139h78l111 -139
h-51z" />
    <glyph glyph-name="oacute" unicode="&#xf3;" 
d="M278 -14c-70 1.33301 -127.5 25.501 -172.5 72.501s-67.5 113.833 -67.5 200.5c0 79.333 20.833 144.666 62.5 195.999s100.834 77 177.501 77c78 0 137.5 -25.5 178.5 -76.5s61.5 -116.5 61.5 -196.5c0 -82 -21.833 -148 -65.5 -198s-101.834 -75 -174.501 -75z
M454 259.001c-0.666992 66 -15.167 119.001 -43.5 159.001s-72.5 60 -132.5 60c-58.667 0 -102.667 -21 -132 -63s-44 -94 -44 -156c0 -66 15.333 -119 46 -159s74 -60 130 -60c58.667 0 102.667 21.167 132 63.5s44 94.166 44 155.499zM272 574.002h-51l111 139h77z" />
    <glyph glyph-name="ocircumflex" unicode="&#xf4;" 
d="M278 -14c-70 1.33301 -127.5 25.501 -172.5 72.501s-67.5 113.833 -67.5 200.5c0 79.333 20.833 144.666 62.5 195.999s100.834 77 177.501 77c78 0 137.5 -25.5 178.5 -76.5s61.5 -116.5 61.5 -196.5c0 -82 -21.833 -148 -65.5 -198s-101.834 -75 -174.501 -75z
M454 259.001c-0.666992 66 -15.167 119.001 -43.5 159.001s-72.5 60 -132.5 60c-58.667 0 -102.667 -21 -132 -63s-44 -94 -44 -156c0 -66 15.333 -119 46 -159s74 -60 130 -60c58.667 0 102.667 21.167 132 63.5s44 94.166 44 155.499zM283 676.002l-82 -102h-65l114 139
h67l113 -139h-65z" />
    <glyph glyph-name="otilde" unicode="&#xf5;" 
d="M278 -14c-70 1.33301 -127.5 25.501 -172.5 72.501s-67.5 113.833 -67.5 200.5c0 79.333 20.833 144.666 62.5 195.999s100.834 77 177.501 77c78 0 137.5 -25.5 178.5 -76.5s61.5 -116.5 61.5 -196.5c0 -82 -21.833 -148 -65.5 -198s-101.834 -75 -174.501 -75z
M454 259.001c-0.666992 66 -15.167 119.001 -43.5 159.001s-72.5 60 -132.5 60c-58.667 0 -102.667 -21 -132 -63s-44 -94 -44 -156c0 -66 15.333 -119 46 -159s74 -60 130 -60c58.667 0 102.667 21.167 132 63.5s44 94.166 44 155.499zM164 586.002l-36 -0.00195312
c2 20.667 8.66699 40.334 20 59.001c10 14.667 23 25.334 39 32.001s32.333 8 49 4c10.667 -2 30.667 -9.66699 60 -23s50.333 -20 63 -20c22.667 0 37.334 16.667 44.001 50h38c-0.666992 -6 -3.33398 -18.667 -8.00098 -38c-17.333 -40 -42 -60 -74 -60
c-19.333 0 -44.833 7.5 -76.5 22.5s-54.834 22.5 -69.501 22.5c-13.333 0 -23.666 -4.33301 -30.999 -13s-13.333 -20.667 -18 -36z" />
    <glyph glyph-name="odieresis" unicode="&#xf6;" 
d="M278 -14c-70 1.33301 -127.5 25.501 -172.5 72.501s-67.5 113.833 -67.5 200.5c0 79.333 20.833 144.666 62.5 195.999s100.834 77 177.501 77c78 0 137.5 -25.5 178.5 -76.5s61.5 -116.5 61.5 -196.5c0 -82 -21.833 -148 -65.5 -198s-101.834 -75 -174.501 -75z
M454 259.001c-0.666992 66 -15.167 119.001 -43.5 159.001s-72.5 60 -132.5 60c-58.667 0 -102.667 -21 -132 -63s-44 -94 -44 -156c0 -66 15.333 -119 46 -159s74 -60 130 -60c58.667 0 102.667 21.167 132 63.5s44 94.166 44 155.499zM172 584.002v102h65v-102h-65z
M331 584.002v102h65v-102h-65z" />
    <glyph glyph-name="divide" unicode="&#xf7;" horiz-adv-x="660" 
d="M80 220v60h500v-60h-500zM367 0h-73v88h73v-88zM367 412h-73v88h73v-88z" />
    <glyph glyph-name="oslash" unicode="&#xf8;" 
d="M135 124l260 309.001c-26 30 -64.333 45 -115 45c-58.667 0 -102.667 -21.167 -132 -63.5s-44 -94.5 -44 -156.5c0 -56.667 10.333 -101.334 31 -134.001zM425 397.001l-263 -311.999c30 -30 69.333 -45 118 -45c58.667 0 102.667 21 132 63s44 93.667 44 155
c0 59.333 -10.333 105.666 -31 138.999zM125 41.002l-54.002 -64l-36 29l58 68c-35.333 46.667 -53 108 -53 184c0 79.333 20.833 144.833 62.5 196.5s100.834 77.5 177.501 77.5c62 0 113.333 -17.667 154 -53l52 62l35 -31l-55 -65c36 -48 54 -110.333 54 -187
c0 -82 -21.167 -147.833 -63.5 -197.5s-101.166 -74.5 -176.499 -74.5c-64 0 -115.667 18.333 -155 55z" />
    <glyph glyph-name="ugrave" unicode="&#xf9;" 
d="M423 236l-0.000976562 281.999h60v-518h-60v72c-15.333 -17.333 -28.166 -30.666 -38.499 -39.999s-27.333 -19.333 -51 -30s-49.5 -16 -77.5 -16c-122.667 0 -184 63.667 -184 191v341h60v-340c0 -92 44.333 -138 133 -138c48.667 0 87.167 18.167 115.5 54.5
s42.5 83.5 42.5 141.5zM294.999 573.999l-138 139h78l111 -139h-51z" />
    <glyph glyph-name="uacute" unicode="&#xfa;" 
d="M423 236l-0.000976562 281.999h60v-518h-60v72c-15.333 -17.333 -28.166 -30.666 -38.499 -39.999s-27.333 -19.333 -51 -30s-49.5 -16 -77.5 -16c-122.667 0 -184 63.667 -184 191v341h60v-340c0 -92 44.333 -138 133 -138c48.667 0 87.167 18.167 115.5 54.5
s42.5 83.5 42.5 141.5zM271.999 573.999h-51l111 139h77z" />
    <glyph glyph-name="ucircumflex" unicode="&#xfb;" 
d="M423 236l-0.000976562 281.999h60v-518h-60v72c-15.333 -17.333 -28.166 -30.666 -38.499 -39.999s-27.333 -19.333 -51 -30s-49.5 -16 -77.5 -16c-122.667 0 -184 63.667 -184 191v341h60v-340c0 -92 44.333 -138 133 -138c48.667 0 87.167 18.167 115.5 54.5
s42.5 83.5 42.5 141.5zM282.999 675.999l-82 -102h-65l114 139h67l113 -139h-65z" />
    <glyph glyph-name="udieresis" unicode="&#xfc;" 
d="M423 236l-0.000976562 281.999h60v-518h-60v72c-15.333 -17.333 -28.166 -30.666 -38.499 -39.999s-27.333 -19.333 -51 -30s-49.5 -16 -77.5 -16c-122.667 0 -184 63.667 -184 191v341h60v-340c0 -92 44.333 -138 133 -138c48.667 0 87.167 18.167 115.5 54.5
s42.5 83.5 42.5 141.5zM171.999 583.999v102h65v-102h-65zM330.999 583.999v102h65v-102h-65z" />
    <glyph glyph-name="yacute" unicode="&#xfd;" horiz-adv-x="500" 
d="M68 -197v56c21.333 -4 38 -6 50 -6c20.667 0 37 7.66699 49 23s23 37.833 33 67.5s16.333 47.167 19 52.5l-201 522h67l166 -445l166 445h65l-193 -511l-28 -73c-6.66699 -16.667 -15.5 -35.5 -26.5 -56.5s-21.167 -36.333 -30.5 -46s-20.833 -18 -34.5 -25
s-28.5 -10.5 -44.5 -10.5c-19.333 0 -38.333 2.33301 -57 7zM244 574h-51l111 139h77z" />
    <glyph glyph-name="thorn" unicode="&#xfe;" horiz-adv-x="611" 
d="M139 257c0 -60.667 16.001 -112 48.001 -154s74.333 -63 127 -63c59.333 0 104.333 22.167 135 66.5s44.667 100.5 42 168.5c-0.666992 63.333 -17.334 113 -50.001 149s-75 54 -127 54c-54.667 0 -97.5 -20.667 -128.5 -62s-46.5 -94.333 -46.5 -159zM139.001 83
l0.00292969 -287.001h-60v924h60v-293h2c16.667 32.667 42.167 58.334 76.5 77.001s68.833 28 103.5 28c79.333 0 138.166 -24.833 176.499 -74.5s57.5 -115.5 57.5 -197.5c0 -78 -19.833 -143.167 -59.5 -195.5s-96.834 -78.5 -171.501 -78.5
c-37.333 0 -72.833 8.5 -106.5 25.5s-59.834 40.833 -78.501 71.5z" />
    <glyph glyph-name="ydieresis" unicode="&#xff;" horiz-adv-x="500" 
d="M68 -197v56c21.333 -4 38 -6 50 -6c20.667 0 37 7.66699 49 23s23 37.833 33 67.5s16.333 47.167 19 52.5l-201 522h67l166 -445l166 445h65l-193 -511l-28 -73c-6.66699 -16.667 -15.5 -35.5 -26.5 -56.5s-21.167 -36.333 -30.5 -46s-20.833 -18 -34.5 -25
s-28.5 -10.5 -44.5 -10.5c-19.333 0 -38.333 2.33301 -57 7zM144 584v102h65v-102h-65zM303 584v102h65v-102h-65z" />
    <glyph glyph-name="dotlessi" unicode="&#x131;" horiz-adv-x="222" 
d="M138 0h-60v518h60v-518z" />
    <glyph glyph-name="Lslash" unicode="&#x141;" 
d="M535 0h-454v360l-81 -40v60l81 40v300h68v-250l81 40v-60l-81 -40v-352h386v-58z" />
    <glyph glyph-name="lslash" unicode="&#x142;" horiz-adv-x="222" 
d="M141 0h-60v340l-71 -40v60l71 40v320h60v-270l71 40v-60l-71 -40v-390z" />
    <glyph glyph-name="OE" unicode="&#x152;" horiz-adv-x="1000" 
d="M547 221l-0.000976562 276.999c0 58.667 -17.667 103.834 -53 135.501s-84.666 47.5 -147.999 47.5c-76 0 -134.5 -27.167 -175.5 -81.5s-61.5 -133.833 -61.5 -238.5c0 -98.667 20.167 -177 60.5 -235s101.833 -87 184.5 -87c53.333 0 101.333 18 144 54
c32.667 28 49 70.667 49 128zM549.999 -0.000976562l-0.000976562 72c-28 -28.667 -57.5 -51 -88.5 -67s-68.5 -24 -112.5 -24c-53.333 0 -100.166 10.333 -140.499 31s-72.5 49 -96.5 85s-41.833 76 -53.5 120s-17.5 91.333 -17.5 142c0 72.667 10.167 136.667 30.5 192
s54 100.5 101 135.5s104.833 52.5 173.5 52.5c46.667 0 87 -7 121 -21s61.667 -38.667 83 -74v76h407v-58h-342v-260h320v-58h-320v-286h352v-58h-417z" />
    <glyph glyph-name="oe" unicode="&#x153;" horiz-adv-x="944" 
d="M904 245l-393.002 -0.000976562c-2.66699 -27.333 0.833008 -56 10.5 -86s28.834 -57.333 57.501 -82s64.334 -37 107.001 -37c38 0 70.5 11 97.5 33s44.5 51 52.5 87h61c-12 -56 -36.667 -99 -74 -129s-83.666 -45 -138.999 -45c-47.333 0 -88.666 11.5 -123.999 34.5
s-62.333 53.5 -81 91.5c-20 -41.333 -48.667 -72.666 -86 -93.999s-79.333 -32 -126 -32c-69.333 0 -125.166 24.667 -167.499 74s-63.5 115.333 -63.5 198c0 80.667 19.667 146.5 59 197.5s98 76.5 176 76.5c97.333 0 166.666 -41.667 207.999 -125
c43.333 83.333 111.666 125 204.999 125c43.333 0 80 -7.66699 110 -23s52.667 -37.166 68 -65.499s26.166 -58.333 32.499 -90s9.5 -67.834 9.5 -108.501zM99.998 248.999c-0.666992 -60 14 -109.833 44 -149.5s72.667 -59.5 128 -59.5c56 0 99.167 20.833 129.5 62.5
s45.5 97.167 45.5 166.5c0 62.667 -15.667 113.167 -47 151.5s-76 57.5 -134 57.5c-54 0 -95.667 -20.5 -125 -61.5s-43 -96.833 -41 -167.5zM510.998 294.999h329c0 55.333 -13.167 99.666 -39.5 132.999s-66.166 50 -119.499 50c-49.333 0 -89.333 -17.667 -120 -53
s-47.334 -78.666 -50.001 -129.999z" />
    <glyph glyph-name="Scaron" unicode="&#x160;" horiz-adv-x="611" 
d="M43 215l66 -0.00195312c10 -117.333 79 -176 207 -176c60.667 0 106.334 14.167 137.001 42.5s46 63.833 46 106.5c0 30 -8 55 -24 75s-37 34.833 -63 44.5s-54.5 18.167 -85.5 25.5s-62.167 15.333 -93.5 24s-60 19.667 -86 33s-47 33.166 -63 59.499s-24 58.5 -24 96.5
c0 53.333 21.5 98.833 64.5 136.5s102.833 56.5 179.5 56.5c77.333 0 137.166 -20.333 179.499 -61s63.166 -92 62.499 -154h-65c0 52 -17 91.167 -51 117.5s-76 39.5 -126 39.5c-64 0 -111 -16.167 -141 -48.5s-41.667 -69.166 -35 -110.499
c4 -24.667 15.333 -45.167 34 -61.5s41 -28.666 67 -36.999s54.333 -15.666 85 -21.999s60.834 -13.666 90.501 -21.999s56.667 -19.333 81 -33s44 -33.5 59 -59.5s22.5 -58 22.5 -96c0 -66 -23.167 -117.5 -69.5 -154.5s-110.833 -55.5 -193.5 -55.5
c-78 0 -141 20.167 -189 60.5s-72 98.166 -72 173.499zM310 812.998l82 102h65l-113 -139h-67l-114 139h65z" />
    <glyph glyph-name="scaron" unicode="&#x161;" horiz-adv-x="500" 
d="M46 162l61.0029 -0.000976562c9.33301 -44 26.166 -75.333 50.499 -94s59.166 -28 104.499 -28c41.333 0 73 9.33301 95 28s33 41.334 33 68.001c0 27.333 -11.333 48.333 -34 63s-50.334 25 -83.001 31s-65.334 13 -98.001 21s-60.334 22.833 -83.001 44.5
s-34 51.167 -34 88.5c0 44 16.167 79.667 48.5 107s76.833 41 133.5 41c119.333 0 186 -54.333 200 -163h-61c-10 72.667 -56.667 109 -140 109c-37.333 0 -66.166 -8 -86.499 -24s-30.5 -37.667 -30.5 -65c0 -22 8.16699 -40 24.5 -54s36.833 -23.833 61.5 -29.5
s51.334 -12.5 80.001 -20.5s55.334 -16.5 80.001 -25.5s45.167 -23.833 61.5 -44.5s24.5 -46.667 24.5 -78c0 -48 -19.333 -85.167 -58 -111.5s-89.667 -39.5 -153 -39.5c-59.333 0 -106.333 16.667 -141 50s-53.334 75.333 -56.001 126zM255.003 610.999l82 102h65
l-113 -139h-67l-114 139h65z" />
    <glyph glyph-name="Ydieresis" unicode="&#x178;" horiz-adv-x="611" 
d="M90 720l212 -347l217 347h79l-261 -406v-314h-68v309l-257 411h78zM199 786v102h65v-102h-65zM358 786v102h65v-102h-65z" />
    <glyph glyph-name="Zcaron" unicode="&#x17d;" horiz-adv-x="611" 
d="M579 0h-548v57l461 605h-422v58h506v-57l-461 -605h464v-58zM310 813l82 102h65l-113 -139h-67l-114 139h65z" />
    <glyph glyph-name="zcaron" unicode="&#x17e;" horiz-adv-x="500" 
d="M467 0h-434v53l344 415h-321v50h398v-53l-344 -415h357v-50zM255 611l82 102h65l-113 -139h-67l-114 139h65z" />
    <glyph glyph-name="florin" unicode="&#x192;" 
d="M539 714l-19.9912 -49.0049c-10.667 6 -21.667 10.333 -33 13c-14 2.66699 -28.667 2.33398 -44 -0.999023c-14.667 -2.66699 -27.334 -9.16699 -38.001 -19.5s-19.167 -24.333 -25.5 -42s-11.5 -34.667 -15.5 -51s-8.33301 -36.5 -13 -60.5s-8.66699 -42.667 -12 -56
h115v-48h-123l-64 -336c-6 -31.333 -12.333 -58.666 -19 -81.999s-15.334 -46.666 -26.001 -69.999s-22.834 -42.5 -36.501 -57.5s-30.334 -27.167 -50.001 -36.5s-41.834 -14 -66.501 -14c-16 0 -34.333 3.66699 -55 11l19 57c14.667 -8.66699 32 -13 52 -13
c36 0 64.167 28.667 84.5 86s42.833 155 67.5 293l29 162h-113v48h121c2 7.33301 5.83301 23.833 11.5 49.5s10.167 44.5 13.5 56.5s8.66602 29.333 15.999 52s15.166 39.834 23.499 51.501s18.666 24.334 30.999 38.001s27 23.5 44 29.5s35.833 9 56.5 9
c23.333 0 46.666 -6.66699 69.999 -20z" />
    <glyph glyph-name="circumflex" unicode="&#x2c6;" horiz-adv-x="333" 
d="M171 676l-82 -102h-65l114 139h67l113 -139h-65z" />
    <glyph glyph-name="caron" unicode="&#x2c7;" horiz-adv-x="333" 
d="M171 611l82 102h65l-113 -139h-67l-114 139h65z" />
    <glyph glyph-name="uni02C9" unicode="&#x2c9;" horiz-adv-x="333" 
d="M23 612v45h296v-45h-296z" />
    <glyph glyph-name="breve" unicode="&#x2d8;" horiz-adv-x="333" 
d="M28 706h39c10.667 -54 45.667 -81 105 -81c58 0 93.667 27 107 81h37c-4.66699 -41.333 -20.167 -72.666 -46.5 -93.999s-60.5 -32 -102.5 -32c-40 0 -72.5 11.167 -97.5 33.5s-38.833 53.166 -41.5 92.499z" />
    <glyph glyph-name="dotaccent" unicode="&#x2d9;" horiz-adv-x="333" 
d="M134 584v102h65v-102h-65z" />
    <glyph glyph-name="ring" unicode="&#x2da;" horiz-adv-x="333" 
d="M167 578c-27.333 0 -50.835 9.83105 -70.502 29.498s-29.5 42.834 -29.5 69.501s10 50 30 70s43.333 30 70 30s49.834 -10 69.501 -30s29.5 -43.333 29.5 -70c0 -27.333 -9.66699 -50.666 -29 -69.999s-42.666 -29 -69.999 -29zM166.998 610.998
c17.333 0 32.667 6.66797 46 20.001s20 28.666 20 45.999c0 18 -6.5 33.667 -19.5 47s-28.5 20 -46.5 20s-33.667 -6.66699 -47 -20s-20 -29 -20 -47s6.66699 -33.5 20 -46.5s29 -19.5 47 -19.5z" />
    <glyph glyph-name="ogonek" unicode="&#x2db;" horiz-adv-x="333" 
d="M149 0l50.001 0.00195312v-2c-53.333 -26.667 -80 -55.667 -80 -87c0 -18.667 6.5 -32.834 19.5 -42.501s28.833 -14.5 47.5 -14.5c14 0 28 3 42 9v-44c-16.667 -6 -34 -9 -52 -9c-28 0 -52 7.66699 -72 23s-30 36.666 -30 63.999c0 22 7.16699 41.833 21.5 59.5
s32.166 32.167 53.499 43.5z" />
    <glyph glyph-name="tilde" unicode="&#x2dc;" horiz-adv-x="333" 
d="M52 586l-36 -0.00195312c2 20.667 8.66699 40.334 20 59.001c10 14.667 23 25.334 39 32.001s32.333 8 49 4c10.667 -2 30.667 -9.66699 60 -23s50.333 -20 63 -20c22.667 0 37.334 16.667 44.001 50h38c-0.666992 -6 -3.33398 -18.667 -8.00098 -38
c-17.333 -40 -42 -60 -74 -60c-19.333 0 -44.833 7.5 -76.5 22.5s-54.834 22.5 -69.501 22.5c-13.333 0 -23.666 -4.33301 -30.999 -13s-13.333 -20.667 -18 -36z" />
    <glyph glyph-name="hungarumlaut" unicode="&#x2dd;" horiz-adv-x="333" 
d="M160 574h-51l111 139h77zM322 574h-51l111 139h77z" />
    <glyph glyph-name="uni03A9" unicode="&#x3a9;" horiz-adv-x="725" 
d="M207 48l0.000976562 3.00195c-40.667 35.333 -74.167 80.166 -100.5 134.499s-39.5 115.166 -39.5 182.499c0 99.333 28.5 180.166 85.5 242.499s128.167 93.5 213.5 93.5s155.333 -32.333 210 -97s82 -143 82 -235c0 -70 -13.833 -133.167 -41.5 -189.5
s-61.167 -100.166 -100.5 -131.499v-3h156v-48h-233v35c45.333 29.333 83.5 72.666 114.5 129.999s46.5 123.333 46.5 198c0 34 -5.16699 67.833 -15.5 101.5s-24.833 64.834 -43.5 93.501s-43.334 52 -74.001 70s-64.667 27 -102 27c-72 0 -130 -28.167 -174 -84.5
s-66 -126.166 -66 -209.499c0 -70.667 15.833 -135.834 47.5 -195.501s69.5 -103.167 113.5 -130.5v-35h-233v48h154z" />
    <glyph glyph-name="uni03BC" unicode="&#x3bc;" 
d="M423 236l-0.000976562 281.999h60v-518h-60v72c-15.333 -17.333 -28.166 -30.666 -38.499 -39.999s-27.333 -19.333 -51 -30s-49.5 -16 -77.5 -16c-48 0 -89.333 10.667 -124 32v-222h-60v722h60v-340c0 -92 44.333 -138 133 -138c48.667 0 87.167 18.167 115.5 54.5
s42.5 83.5 42.5 141.5z" />
    <glyph glyph-name="pi" unicode="&#x3c0;" horiz-adv-x="561" 
d="M533 464l-83.999 0.00292969v-318c0 -66 5 -114.667 15 -146h-56c-11.333 18.667 -17 65 -17 139v325h-196c-3.33301 -73.333 -12.5 -158.333 -27.5 -255s-31.167 -166.334 -48.5 -209.001h-57c18.667 49.333 35.167 120.166 49.5 212.499s23.166 176.166 26.499 251.499
c-55.333 0 -94.333 -4.33301 -117 -13l-10 38c30 16.667 75.667 25 137 25h391z" />
    <glyph glyph-name="endash" unicode="&#x2013;" horiz-adv-x="500" 
d="M500 282v-44h-500v44h500z" />
    <glyph glyph-name="emdash" unicode="&#x2014;" horiz-adv-x="1000" 
d="M1000 238h-1000v44h1000v-44z" />
    <glyph glyph-name="quoteleft" unicode="&#x2018;" horiz-adv-x="222" 
d="M69 495v118c0 56 24.333 91.667 73 107v-37c-22.667 -14 -34 -36 -34 -66v-34h34v-88h-73z" />
    <glyph glyph-name="quoteright" unicode="&#x2019;" horiz-adv-x="222" 
d="M153 720v-118c0 -56 -24.333 -91.667 -73 -107v37c22.667 14 34 36 34 66v34h-34v88h73z" />
    <glyph glyph-name="quotesinglbase" unicode="&#x201a;" horiz-adv-x="222" 
d="M153 88v-118c0 -56 -24.333 -91.667 -73 -107v37c22.667 14 34 36 34 66v34h-34v88h73z" />
    <glyph glyph-name="quotedblleft" unicode="&#x201c;" horiz-adv-x="389" 
d="M237 495v118c0 56 24.333 91.667 73 107v-37c-22.667 -14 -34 -36 -34 -66v-34h34v-88h-73zM86 495v118c0 56 24.333 91.667 73 107v-37c-22.667 -14 -34 -36 -34 -66v-34h34v-88h-73z" />
    <glyph glyph-name="quotedblright" unicode="&#x201d;" horiz-adv-x="389" 
d="M303 720v-118c0 -56 -24.333 -91.667 -73 -107v37c22.667 14 34 36 34 66v34h-34v88h73zM152 720v-118c0 -56 -24.333 -91.667 -73 -107v37c22.667 14 34 36 34 66v34h-34v88h73z" />
    <glyph glyph-name="quotedblbase" unicode="&#x201e;" horiz-adv-x="389" 
d="M303 88v-118c0 -56 -24.333 -91.667 -73 -107v37c22.667 14 34 36 34 66v34h-34v88h73zM152 88v-118c0 -56 -24.333 -91.667 -73 -107v37c22.667 14 34 36 34 66v34h-34v88h73z" />
    <glyph glyph-name="dagger" unicode="&#x2020;" 
d="M248 -166v602h-211v54h211v230h60v-230h211v-54h-211v-602h-60z" />
    <glyph glyph-name="daggerdbl" unicode="&#x2021;" 
d="M248 109v334h-211v54h211v223h60v-223h211v-54h-211v-334h211v-54h-211v-221h-60v221h-211v54h211z" />
    <glyph glyph-name="bullet" unicode="&#x2022;" horiz-adv-x="500" 
d="M430 359c0 -49.333 -17.667 -91.5 -53 -126.5s-78 -52.5 -128 -52.5c-48.667 0 -90.667 17.667 -126 53s-53 77.333 -53 126c0 50 17.5 92.667 52.5 128s77.167 53 126.5 53c50 0 92.667 -17.667 128 -53s53 -78 53 -128z" />
    <glyph glyph-name="ellipsis" unicode="&#x2026;" horiz-adv-x="1000" 
d="M204 0h-73v88h73v-88zM537 0h-73v88h73v-88zM870 0h-73v88h73v-88z" />
    <glyph glyph-name="perthousand" unicode="&#x2030;" horiz-adv-x="1000" 
d="M836 299c40.667 0 75.665 -14.833 104.998 -44.5s44 -64.834 44 -105.501s-14.5 -75.667 -43.5 -105s-64.167 -44 -105.5 -44s-76.666 14.667 -105.999 44s-44 64.333 -44 105s14.833 75.834 44.5 105.501s64.834 44.5 105.501 44.5zM835.998 57
c24 0 45.3311 9.33301 63.998 28s28 40 28 64c0 24.667 -9.16699 46.334 -27.5 65.001s-39.833 28 -64.5 28c-25.333 0 -47.166 -9.33301 -65.499 -28s-27.5 -40.334 -27.5 -65.001s9.33301 -46.167 28 -64.5s40.334 -27.5 65.001 -27.5zM162.996 698
c40.667 0 75.832 -14.6689 105.499 -44.002s44.5 -64.333 44.5 -105c0 -41.333 -14.667 -76.666 -44 -105.999s-64.666 -44 -105.999 -44c-40.667 0 -75.667 14.833 -105 44.5s-44 64.834 -44 105.501s14.667 75.667 44 105s64.333 44 105 44zM162.994 640.998
c-24.667 0 -46.168 -9.16699 -64.501 -27.5s-27.5 -39.833 -27.5 -64.5s9.16699 -46.334 27.5 -65.001s39.833 -28 64.5 -28s46.334 9.33301 65.001 28s28 40.334 28 65.001c0.666992 24 -8.5 45.333 -27.5 64s-40.833 28 -65.5 28zM472.993 298.998
c40.667 0 75.832 -14.833 105.499 -44.5s44.5 -64.834 44.5 -105.501c0 -41.333 -14.667 -76.5 -44 -105.5s-64.666 -43.5 -105.999 -43.5c-40.667 0 -75.667 14.667 -105 44s-44 64.333 -44 105s14.667 75.834 44 105.501s64.333 44.5 105 44.5zM472.991 56.998
c24 0 45.501 9.33301 64.501 28s28.5 40 28.5 64c0 24.667 -9.33301 46.334 -28 65.001s-40.334 28 -65.001 28s-46.167 -9.33301 -64.5 -28s-27.5 -40.334 -27.5 -65.001s9.33301 -46.167 28 -64.5s40 -27.5 64 -27.5zM138.992 -14.002h-53l407 719h53z" />
    <glyph glyph-name="guilsinglleft" unicode="&#x2039;" horiz-adv-x="389" 
d="M121 228v63l146 113v-63l-104 -82l104 -80v-62z" />
    <glyph glyph-name="guilsinglright" unicode="&#x203a;" horiz-adv-x="389" 
d="M268 293v-63l-146 -113v63l104 82l-104 80v62z" />
    <glyph glyph-name="fraction" unicode="&#x2044;" horiz-adv-x="167" 
d="M-113 -14h-51l444 719h51z" />
    <glyph glyph-name="Euro" unicode="&#x20ac;" 
d="M19 236l19.9971 54.002h61c-1.33301 24 -2 42.333 -2 55c0 19.333 0.333008 33.666 1 42.999h-78l19 54h64c11.333 92.667 38.5 159.667 81.5 201s94.833 62 155.5 62c95.333 0 160 -38.667 194 -116l-28 -76c-11.333 47.333 -31.833 82.166 -61.5 104.499
s-64.5 33.5 -104.5 33.5c-50 0 -89.167 -18.667 -117.5 -56s-46.833 -88.333 -55.5 -153h311l-20 -54h-296c0 -4.66699 -0.166992 -11.667 -0.5 -21s-0.5 -16.333 -0.5 -21c0 -13.333 0.666992 -32 2 -56h259l-20 -54h-233c20.667 -130.667 77.667 -196 171 -196
c66.667 0 122.334 36.333 167.001 109v-84c-18.667 -24 -42.667 -43.167 -72 -57.5s-61 -21.5 -95 -21.5c-59.333 0 -110.166 19.667 -152.499 59s-70.166 103 -83.499 191h-86z" />
    <glyph glyph-name="afii61289" unicode="&#x2113;" horiz-adv-x="475" 
d="M420 136l30 -24.002c-42.667 -80.667 -102.334 -121 -179.001 -121c-53.333 0 -93.166 17.833 -119.499 53.5s-40.166 81.167 -41.499 136.5v13c-10.667 -8 -30.334 -24.333 -59.001 -49l-20 36c46.667 40 73 63 79 69v279c0 83.333 14.167 143 42.5 179
s62.5 54 102.5 54c38.667 0 68.167 -14.667 88.5 -44s30.5 -66.666 30.5 -111.999c0 -110.667 -70 -234.334 -210 -371.001v-30c0.666992 -57.333 12 -99.666 34 -126.999s49.667 -41 83 -41c30 0 57.167 9.83301 81.5 29.5s43.5 42.834 57.5 69.501zM164 534.998
l-0.000976562 -241c52.667 56.667 93.667 110 123 160s44 99.667 44 149c0 76.667 -25.667 115 -77 115c-23.333 0 -44.166 -15 -62.499 -45s-27.5 -76 -27.5 -138z" />
    <glyph glyph-name="trademark" unicode="&#x2122;" horiz-adv-x="940" 
d="M859 720v-421h-52v377h-2l-145 -377h-34l-145 377h-2v-377h-52v421h96l120 -311h2l118 311h96zM349 720v-40h-134v-381h-52v381h-134v40h320z" />
    <glyph glyph-name="Omega" unicode="&#x2126;" horiz-adv-x="725" 
d="M207 48l0.000976562 3.00195c-40.667 35.333 -74.167 80.166 -100.5 134.499s-39.5 115.166 -39.5 182.499c0 99.333 28.5 180.166 85.5 242.499s128.167 93.5 213.5 93.5s155.333 -32.333 210 -97s82 -143 82 -235c0 -70 -13.833 -133.167 -41.5 -189.5
s-61.167 -100.166 -100.5 -131.499v-3h156v-48h-233v35c45.333 29.333 83.5 72.666 114.5 129.999s46.5 123.333 46.5 198c0 34 -5.16699 67.833 -15.5 101.5s-24.833 64.834 -43.5 93.501s-43.334 52 -74.001 70s-64.667 27 -102 27c-72 0 -130 -28.167 -174 -84.5
s-66 -126.166 -66 -209.499c0 -70.667 15.833 -135.834 47.5 -195.501s69.5 -103.167 113.5 -130.5v-35h-233v48h154z" />
    <glyph glyph-name="estimated" unicode="&#x212e;" horiz-adv-x="867" 
d="M832 335h-646c-4 0 -6 -1.33301 -6 -4v-196c0 -6 3 -13.333 9 -22c68.667 -70.667 150 -106 244 -106c102.667 0 188.667 39.667 258 119h57c-36 -42.667 -81.833 -76.5 -137.5 -101.5s-115.167 -37.5 -178.5 -37.5c-110 0 -203.833 35 -281.5 105
s-116.5 154.333 -116.5 253c0 99.333 38.833 184.166 116.5 254.499s171.5 105.5 281.5 105.5c110.667 0 205 -35.167 283 -105.5s117 -155.166 117 -254.499v-10zM686 361v196.999c0 8.66699 -3.33301 16.334 -10 23.001c-69.333 68 -150.333 102 -243 102
c-93.333 0 -174.333 -35 -243 -105c-6.66699 -6.66699 -10 -15 -10 -25v-192c0 -4 2 -6 6 -6h495c3.33301 0 5 2 5 6z" />
    <glyph glyph-name="partialdiff" unicode="&#x2202;" horiz-adv-x="537" 
d="M101 678l-22 40.999c46 36 99.667 54 161 54c67.333 0 125 -32.167 173 -96.5s72 -156.833 72 -277.5c0 -118.667 -22 -216.5 -66 -293.5s-106.667 -115.5 -188 -115.5c-60 0 -106.167 22.333 -138.5 67s-48.5 98 -48.5 160c0 74.667 20.833 135.167 62.5 181.5
s91.167 69.5 148.5 69.5c42 0 78.333 -11.167 109 -33.5s51.667 -44.833 63 -67.5h1c0.666992 8.66699 1 24.334 1 47.001c0 92.667 -19 167.667 -57 225s-83.667 86 -137 86c-49.333 0 -94 -15.667 -134 -47zM235 37.999l1.99902 -0.000976562
c48.667 0 89.334 25.5 122.001 76.5s53 114.167 61 189.5c-10 28.667 -29.333 55.334 -58 80.001s-61.667 37 -99 37c-44 0 -82 -19.833 -114 -59.5s-48 -87.167 -48 -142.5c0 -53.333 12.333 -96.833 37 -130.5s57 -50.5 97 -50.5z" />
    <glyph glyph-name="Delta" unicode="&#x2206;" horiz-adv-x="646" 
d="M33 0v43l258 669h65l257 -668v-44h-580zM90 47l461.002 -0.000976562l-158 410c-4.66699 14 -16.334 44.333 -35.001 91s-30.334 78.667 -35.001 96h-4c-4 -14 -14.167 -42.667 -30.5 -86s-26.833 -71.666 -31.5 -84.999z" />
    <glyph glyph-name="product" unicode="&#x220f;" horiz-adv-x="692" 
d="M665 640h-113v-736h-56v736h-301v-736h-56v736h-113v52h639v-52z" />
    <glyph glyph-name="summation" unicode="&#x2211;" horiz-adv-x="552" 
d="M528 -96h-505v39l278 354l-266 355v40h478v-50h-396v-3l250 -335l-269 -342v-3h430v-55z" />
    <glyph glyph-name="minus" unicode="&#x2212;" horiz-adv-x="660" 
d="M80 220v60h500v-60h-500z" />
    <glyph glyph-name="uni2215" unicode="&#x2215;" horiz-adv-x="167" 
d="M-113 -14h-51l444 719h51z" />
    <glyph glyph-name="uni2219" unicode="&#x2219;" horiz-adv-x="278" 
d="M139 398c12.667 0 23.832 -4.66895 33.499 -14.002s14.5 -20.666 14.5 -33.999s-4.66699 -24.833 -14 -34.5s-20.666 -14.5 -33.999 -14.5s-24.833 4.83301 -34.5 14.5s-14.5 21.167 -14.5 34.5c0 12.667 5 23.834 15 33.501s21.333 14.5 34 14.5z" />
    <glyph glyph-name="radical" unicode="&#x221a;" horiz-adv-x="564" 
d="M562 820l-222 -971h-54l-163 468l-75 -27l-13 36l124 49l136 -388c9.33301 -35.333 15 -58 17 -68h1c0.666992 5.33301 1.66699 11.666 3 18.999s3 15.833 5 25.5s3.33301 16.834 4 21.501l192 835h45z" />
    <glyph glyph-name="infinity" unicode="&#x221e;" horiz-adv-x="774" 
d="M722 289v-0.999023c0 -45.333 -14.667 -82.333 -44 -111s-64.333 -43 -105 -43c-30 0 -58.5 9.33301 -85.5 28s-60.167 49.667 -99.5 93c-23.333 -26 -42 -46 -56 -60s-33.5 -27.667 -58.5 -41s-50.167 -20 -75.5 -20c-40 0 -74.333 14.5 -103 43.5s-43 64.5 -43 106.5
c0 44 14.5 80.667 43.5 110s65.5 44 109.5 44c23.333 0 47 -6.5 71 -19.5s43.667 -27 59 -42s34.333 -35.167 57 -60.5l43 46.5c8 8.33301 21 20.166 39 35.499s35.333 25.833 52 31.5s34.667 8.5 54 8.5c43.333 0 77.833 -13.833 103.5 -41.5s38.5 -63.5 38.5 -107.5z
M204 173.001h1c12.667 0 25 2 37 6s24.333 11 37 21s22.5 18.167 29.5 24.5s17.5 16.833 31.5 31.5l26 27c-38 44 -66 73 -84 87c-28 20 -56.333 30 -85 30c-31.333 0 -56.333 -11.5 -75 -34.5s-27.667 -50.5 -27 -82.5c0 -30.667 10.167 -56.667 30.5 -78
s46.5 -32 78.5 -32zM576 400.001l-0.998047 -0.000976562c-16 0 -33 -4.83301 -51 -14.5s-31.667 -18.5 -41 -26.5s-23 -21.667 -41 -41s-27.667 -29.666 -29 -30.999c39.333 -42 70.166 -71.5 92.499 -88.5s46.166 -25.5 71.499 -25.5c30.667 0 55.5 11.333 74.5 34
s28.5 48.667 28.5 78c0 36 -9.66699 64.167 -29 84.5s-44.333 30.5 -75 30.5z" />
    <glyph glyph-name="integral" unicode="&#x222b;" horiz-adv-x="344" 
d="M329 828l-12 -40c-10 7.33301 -22.333 11 -37 11c-21.333 0 -38.333 -7.66699 -51 -23c-24 -26.667 -36 -87 -36 -181c0 -50.667 2.16699 -134.5 6.5 -251.5s6.5 -201.833 6.5 -254.5c0 -91.333 -15 -158 -45 -200c-20.667 -30 -50.334 -45 -89.001 -45
c-22.667 0 -43 5.66699 -61 17l12 42c17.333 -8.66699 32.666 -13 45.999 -13c18.667 0 34.334 8 47.001 24c24.667 30.667 37 89.667 37 177c0 52.667 -2.16699 138.167 -6.5 256.5s-6.5 202.833 -6.5 253.5c0 102.667 17 171 51 205c22.667 24.667 51.334 37 86.001 37
c20.667 0 38 -5 52 -15z" />
    <glyph glyph-name="approxequal" unicode="&#x2248;" horiz-adv-x="568" 
d="M492 421l26.001 -22.001c-32 -61.333 -74 -92 -126 -92c-13.333 0 -26.833 2 -40.5 6s-25 8.33301 -34 13l-44.5 24c-42.667 22.667 -74.667 34 -96 34c-22 0 -40.5 -6.5 -55.5 -19.5s-30.5 -31.5 -46.5 -55.5l-27 21c33.333 62 78.333 93 135 93
c11.333 0 23.166 -1.83301 35.499 -5.5s21.833 -7 28.5 -10s16.167 -8 28.5 -15s19.5 -11.167 21.5 -12.5l19.5 -10c10.333 -5.33301 17.166 -8.66602 20.499 -9.99902l16.5 -6.5c7.66699 -3 14.667 -5 21 -6s13.166 -1.5 20.499 -1.5c20.667 0 38.334 6 53.001 18
s29.334 31 44.001 57zM492.001 255.999l26 -22.0029c-32 -60.667 -74 -91 -126 -91c-13.333 0 -26.833 2 -40.5 6s-25 8.33301 -34 13l-44.5 24c-42.667 22.667 -74.667 34 -96 34c-36.667 0 -70.667 -25.333 -102 -76l-27 21c32.667 62 77.667 93 135 93
c11.333 0 23.166 -1.66699 35.499 -5s22 -6.66602 29 -9.99902s16.333 -8.16602 28 -14.499s18.834 -10.166 21.501 -11.499c36 -20 63 -31.333 81 -34c5.33301 -0.666992 11 -1 17 -1c20 0 37.333 5.83301 52 17.5s29.667 30.5 45 56.5z" />
    <glyph glyph-name="notequal" unicode="&#x2260;" horiz-adv-x="568" 
d="M398 498l-47 -101h164v-40h-181l-70 -150h251v-40h-268l-56 -120l-32 16l48 104h-155v40h173l70 150h-243v40h259l55 117z" />
    <glyph glyph-name="lessequal" unicode="&#x2264;" horiz-adv-x="568" 
d="M512 94l-454 225v41l454 226v-49l-409 -195v-2l409 -198v-48zM515 10h-463v42h463v-42z" />
    <glyph glyph-name="greaterequal" unicode="&#x2265;" horiz-adv-x="568" 
d="M58 586l455 -226v-41l-455 -225v48l409 196v3l-409 196v49zM514 10h-461v42h461v-42z" />
    <glyph glyph-name="lozenge" unicode="&#x25ca;" horiz-adv-x="565" 
d="M508 346l-203 -390h-47l-202 390l203 391h47zM454 344l-153.001 292.998c-8 18.667 -14.333 35.334 -19 50.001h-2c-3.33301 -12 -9.66602 -28.667 -18.999 -50l-152 -290l154 -294c8.66699 -19.333 14.667 -35.666 18 -48.999h3c4.66699 18 10.667 34 18 48z" />
    <glyph glyph-name=".null" horiz-adv-x="0" 
 />
    <glyph glyph-name="nonmarkingreturn" horiz-adv-x="333" 
 />
    </font>
</defs>
</svg>
