<svg xmlns="http://www.w3.org/2000/svg" width="55" height="55" viewBox="0 0 55 55">
  <defs>
    <style>
      .cls-1 {
        fill: #5eb6c4;
        fill-rule: evenodd;
      }
    </style>
  </defs>
  <path class="cls-1" d="M27.175,2.013A4.035,4.035,0,0,0,23.16,5.231h-0.1L9.876,19.745h6.59L25.582,9.718a4.178,4.178,0,0,0,1.593.355,4.228,4.228,0,0,0,1.6-.355l9.106,10.027h6.6L31.295,5.231H31.189a4.018,4.018,0,0,0-4.014-3.218h0ZM3.288,22.966a3.259,3.259,0,0,0-3.3,3.229v1.612A3.216,3.216,0,0,0,3.03,30.98l5.2,17.781c1.649,3.226,3.3,3.226,4.939,3.226H42.833c1.651,0,3.29,0,4.94-3.226L52.98,30.98a3.215,3.215,0,0,0,3.032-3.174V26.194a3.251,3.251,0,0,0-3.29-3.229H3.288Zm9.269,8.061h0.819a4.227,4.227,0,0,1,4.015,3.023l2.317,10.029a2.475,2.475,0,0,1-2.623,3.069h-0.83a4.262,4.262,0,0,1-4.014-3.069L9.925,34.049a2.451,2.451,0,0,1,2.632-3.023h0Zm15.448,0a3.251,3.251,0,0,1,3.29,3.229v9.672a3.3,3.3,0,0,1-6.589,0V34.255a3.258,3.258,0,0,1,3.3-3.229h0Zm14.618,0h0.83a2.446,2.446,0,0,1,2.622,3.023L43.758,44.078a4.261,4.261,0,0,1-4.015,3.069h-0.83a2.477,2.477,0,0,1-2.622-3.069l2.317-10.029a4.229,4.229,0,0,1,4.015-3.023h0Z"/>
</svg>
