<svg xmlns="http://www.w3.org/2000/svg" width="55" height="55" viewBox="0 0 55 55">
  <defs>
    <style>
      .cls-1 {
        fill: #5eb6c4;
        fill-rule: evenodd;
      }
    </style>
  </defs>
  <path class="cls-1" d="M27.5,0.012A27.488,27.488,0,1,0,54.988,27.5,27.5,27.5,0,0,0,27.5.012h0Zm0,2.8A24.7,24.7,0,0,1,49.7,16.724v0.054a8.318,8.318,0,0,1,.047.9,5.551,5.551,0,0,1,.7.748A24.945,24.945,0,0,1,51.7,22.858a1.574,1.574,0,0,1-1.052.4C48.1,21.253,50.592,25.469,52,24.706a25.416,25.416,0,0,1,.2,2.8,24.478,24.478,0,0,1-5.94,15.964,3.66,3.66,0,0,1,.1-0.654c1.715-2.081,1.4-6.188-2.1-5.737-1.816,1.426-4.334,3.258-6.54,1.153-2.3-2.072-1.232-5.5.054-7.832,1.286-1.872,1.707-4.64,3.991-5.59,2.253,0.515,5.012.36,5.838-2.392,0.7-1.234.3-1.647-.351-1.95a0.949,0.949,0,0,1-.148-0.046c-0.748-.314-1.7-0.563-1.8-1.647,0.67-1.153-.748-3.514-1.294-1.4,1.161,1.316,1.426,5.269-1.348,3.8,0.99,1.582-3.578.568-2.7,2.789,0.725,2.416-4.123,3.781-2.744.7,0.78-2.269-.359-5.676,1.653-7.134-0.023-.069.179-0.373,0.094-0.054a1.932,1.932,0,0,1,.2-0.148c1.754-1.209-2.229-4.84-2-2.6,1.715,0.9.772,2.706-.9,1.8-1.754-.865-2.393-5.674.047-5.338,1.84,0.242.086-1.7-.748-2.644-0.086.437-.218-0.086-0.148-0.147-0.039-.047-0.117-0.116-0.156-0.156,0.234-2.892-4.583-.36-5.386-2.939-3.032-1.5-6.5-1.589-9.876-1.347A24.277,24.277,0,0,1,24,3.106l0.4-.047c0.374-.039.756-0.087,1.1-0.148,0.655-.054,1.325-0.1,2-0.1H27.5ZM17.176,6.1c3.445,1.146-1.746,4.794.85,6.236a1.673,1.673,0,0,1,.694.148c0.07-.07.094-0.032,0.1,0.054,1.161,0.539,1.411,2.2-.5,2.09-2.642-.748-3.687,4.894-1.1,4.194,0.951-2.658,3.82-1.535,4.342.8,1.543,2.4-1.613,2.378-2.7,3.4,1.091,1.966-1.917.928-3.04,1.9-2.151.474-2.814,3.741-4.692,3.841-0.078-3.42-5.776-2.267-4.84.843,1.216,0.951,2.837,1.933,2.6,3.944-0.093,4.24,5.121,2.846,7.436,5.091,2.845,1.247,4.669,3.811,7.179,5.487,2.175-.74,6.2,1.325,4.045,3.935A17.253,17.253,0,0,1,23.209,50.4v0.054a11.67,11.67,0,0,1-2.946.649,24.516,24.516,0,0,1-5.433-2.449c-0.008-.016.008-0.032,0-0.046-0.772-2.245-2.837-3.633-4.24-5.442a2.965,2.965,0,0,1-.8-2.441c0.016-.006-0.016-0.046,0-0.054,0.093-1.434.6-2.931-.444-4.24C7.713,33.708,5.663,31.215,4.6,28.2c-0.117-3.117-.288-6.11.748-9.081,2.307-4.739,8.06-9.8,11.825-13.017h0Zm7.335,3.844a1.106,1.106,0,0,1,.3.046c0.6,0,.4.671,0,0.85-1.419,1.333-1.769-.616-0.6-0.85a1.786,1.786,0,0,1,.3-0.046h0Zm1.941,0.443a1.989,1.989,0,0,1,2.346,1.5c0.717,2.861-2.136,4.709-3.2,7.04-2.627-.735.148-3.633-1-5.044-1.575-1.629.14-3.273,1.847-3.492h0Zm-5.137,2.845c1.66-.1,1.341,3.57-0.047,4.139-1.216-1.114.382-2.753-.3-4.038a1.9,1.9,0,0,1,.351-0.1h0Zm14.319,5.885c0.546-.03,1.762.53,1.645,1.3-0.522.88-2,.8-1.45-0.5-0.592-.554-0.522-0.78-0.195-0.8h0Zm-14.366,3.8c0.647-.118,2.042.373,0.748,1.145,0.413-.437-0.3-0.273-0.405-0.249-0.834-.577-0.741-0.825-0.343-0.9h0ZM16.03,24.955c0.179,0.024-.063.265-0.3,0.2H15.679a0.424,0.424,0,0,1-.1-0.1,1.033,1.033,0,0,1,.452-0.1h0Zm-5.09,6.938a1.082,1.082,0,0,1,.4,0,2.4,2.4,0,0,1,.452.1,0.094,0.094,0,0,0,0,.048,1,1,0,0,1,.8,1.294,1.027,1.027,0,0,1-1.1-.443c-0.9-.555-0.881-0.9-0.546-1h0Z"/>
</svg>
