<svg xmlns="http://www.w3.org/2000/svg" width="55" height="55" viewBox="0 0 55 55">
  <defs>
    <style>
      .cls-1 {
        fill: #5eb6c4;
        fill-rule: evenodd;
      }
    </style>
  </defs>
  <path class="cls-1" d="M18.339,2.011a2.912,2.912,0,0,0-2.89,2.942V9.36H3.9A2.912,2.912,0,0,0,1.011,12.3v16.17H52.989V12.3A2.911,2.911,0,0,0,50.1,9.36H38.551V4.953A2.911,2.911,0,0,0,35.66,2.011H18.339Zm2.883,2.942H32.777a1.456,1.456,0,0,1,1.445,1.473V9.36H19.784V6.426a1.45,1.45,0,0,1,1.438-1.473h0ZM2.456,31.406V50.518A1.455,1.455,0,0,0,3.9,51.987H50.1a1.455,1.455,0,0,0,1.445-1.469V31.406H29.886v4.415a1.455,1.455,0,0,1-1.445,1.469H25.558a1.456,1.456,0,0,1-1.445-1.469V31.406H2.456Z"/>
</svg>
